<mxfile host="app.diagrams.net" modified="2023-01-09T16:23:51.773Z" agent="5.0 (Windows NT 10.0; Win64; x64) AppleWebKit/537.36 (KHTML, like Gecko) Chrome/108.0.0.0 Safari/537.36" etag="FQZIWyHUmkqEpeoj7Qv2" version="20.7.4" type="github">
  <diagram name="Page-1" id="c37626ed-c26b-45fb-9056-f9ebc6bb27b6">
    <mxGraphModel dx="974" dy="1116" grid="1" gridSize="10" guides="1" tooltips="1" connect="1" arrows="1" fold="1" page="1" pageScale="1" pageWidth="1100" pageHeight="850" math="0" shadow="0">
      <root>
        <mxCell id="0" />
        <mxCell id="1" parent="0" />
        <mxCell id="OL39ELZ7I26vXckXmjW0-41" value="Cloud" style="whiteSpace=wrap;html=1;rounded=0;shadow=0;comic=0;strokeWidth=1;fontFamily=Verdana;fontSize=14;fillColor=#f5f5f5;strokeColor=none;fontStyle=1;verticalAlign=top;" parent="1" vertex="1">
          <mxGeometry x="1910" y="230" width="700" height="410" as="geometry" />
        </mxCell>
        <mxCell id="v_S0wCteuelmJFMXRHNb-38" value="" style="whiteSpace=wrap;html=1;rounded=0;shadow=0;comic=0;strokeWidth=1;fontFamily=Verdana;fontSize=14;fillColor=none;strokeColor=default;fontStyle=1;verticalAlign=top;" vertex="1" parent="1">
          <mxGeometry x="1920" y="290" width="500" height="321" as="geometry" />
        </mxCell>
        <mxCell id="OL39ELZ7I26vXckXmjW0-1" value="lokale Umgebung" style="whiteSpace=wrap;html=1;rounded=0;shadow=0;comic=0;strokeWidth=1;fontFamily=Verdana;fontSize=14;fillColor=#f5f5f5;strokeColor=none;verticalAlign=top;fontStyle=1" parent="1" vertex="1">
          <mxGeometry x="1210" y="150" width="470" height="490" as="geometry" />
        </mxCell>
        <mxCell id="v_S0wCteuelmJFMXRHNb-33" value="" style="rounded=0;orthogonalLoop=1;jettySize=auto;html=1;endArrow=none;endFill=0;" edge="1" parent="1" source="OL39ELZ7I26vXckXmjW0-7" target="OL39ELZ7I26vXckXmjW0-11">
          <mxGeometry relative="1" as="geometry" />
        </mxCell>
        <mxCell id="OL39ELZ7I26vXckXmjW0-7" value="Internet" style="ellipse;shape=cloud;whiteSpace=wrap;html=1;rounded=0;shadow=0;comic=0;strokeWidth=1;fontFamily=Verdana;fontSize=12;" parent="1" vertex="1">
          <mxGeometry x="1740" y="365" width="120" height="80" as="geometry" />
        </mxCell>
        <mxCell id="v_S0wCteuelmJFMXRHNb-4" value="" style="edgeStyle=orthogonalEdgeStyle;rounded=0;orthogonalLoop=1;jettySize=auto;html=1;endArrow=none;endFill=0;" edge="1" parent="1" source="OL39ELZ7I26vXckXmjW0-11" target="v_S0wCteuelmJFMXRHNb-3">
          <mxGeometry relative="1" as="geometry" />
        </mxCell>
        <mxCell id="v_S0wCteuelmJFMXRHNb-6" value="" style="edgeStyle=orthogonalEdgeStyle;rounded=0;orthogonalLoop=1;jettySize=auto;html=1;endArrow=none;endFill=0;" edge="1" parent="1" source="OL39ELZ7I26vXckXmjW0-11" target="v_S0wCteuelmJFMXRHNb-2">
          <mxGeometry relative="1" as="geometry" />
        </mxCell>
        <mxCell id="v_S0wCteuelmJFMXRHNb-12" value="" style="edgeStyle=orthogonalEdgeStyle;rounded=0;orthogonalLoop=1;jettySize=auto;html=1;endArrow=none;endFill=0;" edge="1" parent="1" source="OL39ELZ7I26vXckXmjW0-11" target="v_S0wCteuelmJFMXRHNb-11">
          <mxGeometry relative="1" as="geometry" />
        </mxCell>
        <mxCell id="OL39ELZ7I26vXckXmjW0-11" value="IoT Hub" style="aspect=fixed;html=1;points=[];align=center;image;fontSize=12;image=img/lib/azure2/iot/IoT_Hub.svg;" parent="1" vertex="1">
          <mxGeometry x="1983" y="331" width="64" height="64" as="geometry" />
        </mxCell>
        <mxCell id="v_S0wCteuelmJFMXRHNb-37" value="" style="edgeStyle=orthogonalEdgeStyle;rounded=0;orthogonalLoop=1;jettySize=auto;html=1;startArrow=none;startFill=0;endArrow=none;endFill=0;" edge="1" parent="1" source="OL39ELZ7I26vXckXmjW0-33" target="OL39ELZ7I26vXckXmjW0-44">
          <mxGeometry relative="1" as="geometry" />
        </mxCell>
        <mxCell id="v_S0wCteuelmJFMXRHNb-39" value="" style="edgeStyle=orthogonalEdgeStyle;rounded=0;orthogonalLoop=1;jettySize=auto;html=1;startArrow=none;startFill=0;endArrow=none;endFill=0;" edge="1" parent="1" source="OL39ELZ7I26vXckXmjW0-33" target="v_S0wCteuelmJFMXRHNb-38">
          <mxGeometry relative="1" as="geometry" />
        </mxCell>
        <mxCell id="OL39ELZ7I26vXckXmjW0-33" value="Deployment Terraform" style="shape=image;verticalLabelPosition=bottom;labelBackgroundColor=default;verticalAlign=top;aspect=fixed;imageAspect=0;image=https://royalzsoftware.de/wp-content/uploads/2022/06/og-image-8b3e4f7d-blog-aspect-ratio.png;" parent="1" vertex="1">
          <mxGeometry x="2477" y="410.5" width="106.67" height="80" as="geometry" />
        </mxCell>
        <mxCell id="OL39ELZ7I26vXckXmjW0-44" value="GitHub Code Repo" style="shape=image;verticalLabelPosition=bottom;labelBackgroundColor=default;verticalAlign=top;aspect=fixed;imageAspect=0;image=data:image/png,iVBORw0KGgoAAAANSUhEUgAAAqAAAAFzCAYAAADhfrvZAACCN0lEQVR4Xu2dBXxTV/vH0ySN1l2p0OJe3F0HDIZsMNjGXN65u7v7BhO2ARuDIWM4w6EUrQKlUHeXpE3Spv/nlHZ/xoBGbpKb5Hc/b142ds85z/mek9zffc5zniMQ4AIBEAABEAABEAABEAABEAABEAABEAABEAABEAABEAABEAABEAABEAABEAABEAABEAABEAABEAABEAABEAABEAABEAABEAABEAABEAABEAABEAABEAABEAABEAABEAABEAABEAABEAABEAABEAABEAABEAABEAABEAABEAABEAABEAABEAABEAABEAABEAABEAABEAABEAABEAABEAABEAABEAABEAABEAABEAABEAABEAABEAABEAABEAABEAABEAABEAABEAABEAABEAABEAABEAABEAABEAABEAABEAABEAABEAABEAABEAABEAABEAABEAABEAABEAABEAABEAABEAABEAABEAABEAABEAABEAABEAABEAABEAABEAABEAABEAABEAABEAABEAABEAABEAABEAABEAABEAABEAABEAABEAABByfg4uD9Q/dAAARAgDMCTU1NLvQR6fV6YXNzs0uzoNnFReDS7CJ0aRYJRU2urq5NnDWGikAABEDAgQlAgDrw4KJrIAAChhFQ19fLKysqfcrKygLLKyr9Kyoq/OpUde51dXVudSqVu1ajlTY0NMi1Wq1Eo9HKGpsaxUyE6vXNQqGLS7NQJGxyFYu1EolUI5G4amVyWb1UKmvwcHercVO61SoUCpWXl2elp4dnVVBQQL6/v3+xVCrVGmYd7gIBEAABxyMAAep4Y4oegQAIXIVAfX2DrKioKORCZmanzKysmOLikpDCoqLQChKdKhKadXUqD7Va7UbC012j1UhJcLpqtboWsdmsb3bRN+tdSHS6NDfrW1ogL6hAwHyg9M8u7E/6CIVCPX2YKNVLJRIdiVId/akhEVonl8nU7h7u1R4e7pXe3t5lQUFB+SHBQXkhwcF5HaOj06OiIjNEItHFynGBAAiAgAMTgAB14MFF10DA2QmUl1f4MrF54sSpQUkpKXElpSUhVVVV3lWV1X41tbWeDQ31UhKlUlpWv1RAtvwzu9pE5f9zZCLz2lRbRGnrxf657d/b/pnEbMvfkdAUyGQyHfOOuikVNZ6enhU+Pj6loaEh2d26dEnu1avHie7duiW6u7vXOvs4ov8gAAKORwAC1PHGFD0CAaclwJbSU9PSeh86dHj0qcTkQdnZ2dG1dSrP6upqH7aczmI4mfhr9VS2Cs32RaWlgDJbyKNKgvSiKGXSVUJxpEqlspa8pFXMUxodGZnRv3//A3H9+ib069v3iEgk/H+FaynDUC8IgAAIWJgABKiFAaN6EAAByxIoLSvzO3IkYeS27TtnpqSm9amsqvKrra31ophNRWNj4z9ezP96My1rl6m1t3lK2/4Ui8XNCrmcLd+rfH19S/r06X1k5IjhO8ePH7vZ3c2tztR2UA4EQAAEbEkAAtSW9NE2CICASQRok5DPkYSjwzdv3Tbr2LHjQ0tKSkO1jTp5o65RyCq0F7FpSOdb3J2XLOXTTnsdeUnVHrRkP3bMqC1jRo3cPnrUyB3kNVUbUh/uAQEQAAE+EIAA5cMowAYQAIFrEmBL52p1vTI1NbXP+o1/ztux8+9pVdXVfhqNRkkxlaI20eksGNviSmmzUyN9NH6+vsXjxo3Zcv2M6asH9I87LKHNT87CAv0EARCwTwIQoPY5brAaBJyCQING41peVh64ddv26b/9vvbWM2fPdicxKqXOi50CgHGdbGJitEvnzimLFy34eurkSRvd3NxqKN0TxKhxHHE3CICAFQhAgFoBMpoAARAwnAB5NF3YTvUs2kBE3s65GzZsupGlS6K0RuK23emG1+Z8dzLvKIn0xsDAwIIb58354bppU9ZFRkae93B3R7yo800H9BgEeEsAApS3QwPDQMD5CJSUlgacPHlqwOo1axbv3rN/EsvHSZtwKNc7fqqMnQ1MiFKIQjMlwK+aNmXy2jk3zFrZpXOX1IAA/xJj68L9IAACIMA1Afyqc00U9YEACBhNIL+gIJQ2Ew1Zs3bdwv0HDo6ndEpuJDz/ycdpdIUo8A+BViEqULopa0aNGLFz4Y3zv+/Tp9dxSoJfBEwgAAIgYCsCEKC2Io92QQAEBCUlJQF79u2fsHnL1lm79+ybWFtb5y6TSSE8LTA3LgpRrYBOZaqfPHnCxlkzZ/46cEDcYVqqL7ZAc6gSBEAABK5JAAIUEwQEQMDqBGpqajx2/r178o4du6Zt2rzlBsrZqWQeT9pEY3VbnK1BJkSJt8Ddzb128qQJ62fPmvnrsKFD97q5KVXOxgL9BQEQsB0BCFDbsUfLIOB0BCgxvGjP3n0TduzcNXXjpr/mFhWXBMmkUghPG8wEdiQoixGlc+jzJ0+euH76tKl/jBo5YrcNTEGTIAACTkgAAtQJBx1dBgFbEEhKTu6zbv3GG2m5fXZWdk4UbSwSs/PQcdmWAO2YF2i1WkFsTMyZKSREb1644LuYjtEZtrUKrYMACDg6AQhQRx9h9A8EbEyALbev+nX1rX+s37ggJTW1N3lBZUx4Yme7jQfmsuaZCKUQCO2ggQMOXT9z+qo5N8xeRambavllJawBARBwFAIQoI4ykugHCPCQwOH4+OHLvl/+wN69+6bU1NZ6iFicJ1Iq8XCkLprE4kN1Op3Ak475HD165Lb/3XvPe7179zrJW4NhGAiAgN0SgAC126GD4SDAXwJ1KpXyp59/ufOXlb/emZmZ1YWEjRDL7fwdr8sta6RleXpRaOwYHXX6lsWLvrp5wU0/yOWyBvvpASwFARDgOwEIUL6PEOwDATsjkJyc0vu9Dz5+6WB8/FhVXZ0n29mO5XY7G8RWbyjbqCSTyWqmTpm09vHHHnktOjIy0/56AotBAAT4SAAClI+jAptAwA4J0NKteM0f62/64MOPXywoLIxmXk+kVbLDgbzMZCZCRSJhPR3nefapxx59ZcqUSX9Syqwm++8ZegACIGBLAhCgtqSPtkHAQQiUV1T4fPLp50+t+m31HXV1Kh8ITwcZ2NZusNhQ5hR1FYtr/vfAfe/cc9cdn7q5uSFvqGMNM3oDAlYlAAFqVdxoDAQciwB5x1zSTp/u8fobb79JJxpNpThPZJJ3rCH+T29ozDXDhw75+5133ro/OjICS/IOPt7oHghYigAEqKXIol4QcHAClLbHlZLKj3/pldffy8zK6o5NRg4+4Jd0j0SoLjIy4swH775938AB/Q9jSd55xh49BQGuCECAckUS9YCAExGoptyea9b+seDNt997U11f743USk40+K1d1eubBV5engUvPv/MUzNnTP9dIZdrnI8CegwCIGAqAbGpBVEOBEDAOQmUlpb5vf3O+8/+surXu5oaG5UQn845D4RCF0FVVVXI408+/XVhYVFIcXHJj4GBASXOSQO9BgEQMJYAPKDGEsP9IODEBLJzciLe/+DjF37/Y91C+vGQYbORE0+GSzyhAoG+nrygq59+8vGXIyMiskAFBEAABNojAA9oe4Tw30EABFoIpKSk9nr+xVde3rFz1zQSnhLk9sTEYASYJ5T2osnXb/jzptraOs/09HNPd+oUexZ0QAAEQOBaBCBAMT9AAATaJXDk6LEhz73w0hvxCUeH02YjV4jPdpE51Q3ME04bkyQ7d/09taGhQX7i5Mnn+/Xte8ypIKCzIAACRhGAADUKF24GAecjsHvP3vEvvPTya0mJKQNZZnmIT+ebA4b0uDUcQ7J3//7xKpXK7fiJkw/H9YMINYQd7gEBZySAGFBnHHX0GQQMJEBplsa99uZbbyUnpw6gVDs4UtNAbs58G0ta39jY2NSnd6+EV19+8fHBgwYecmYe6DsIgMCVCUCAYmaAAAhckQDzfL72xlvvpKSe7icWiyA+MU8MJsBEqFanE3Tr2uXkx++9e1e/OHhCDYaHG0HASQjg1BInGWh0EwSMIbDvwMHRr73x9lupaRCfxnDDvRcJsDANiaur4PTpM30fefKpr4+fONUfbEAABEDgUgLwgGI+gAAI/IvA0eMnBj7/wksfn0pMGkwbjkhL4GcCU8R0AswT2rNHt6PLvv7qpujoqPOm14SSIAACjkQAHlBHGk30BQTMJJCcktLr9TffejMxKXkAxKeZMFG8hYArxQ6TJz3u3gceXJ6ZmRUNLCAAAiDACECAYh6AAAi0ECgqLg58/6NPnj9yJGEE7WgWw/OJicEFATaPxCKx8FRS8qDnX37l/ZqaWncu6kUdIAAC9k0AAtS+xw/WgwAnBErLy32fff7Fj7dv2zFDJBIjyTwnVFHJpQTENLH+/nvPlCeeevqLuro6JeiAAAg4NwHkAXXu8UfvQUBQ39Agfff9Dx7dsnX7LKFIJAUSELAUAfKsy/78a8ucDh06XKBUTa9Raq8mS7WFekEABPhNAAKU3+MD60DAogS0Wq3rql9/W7Rs2Q8PkTiA+LQobVTOCNCSvPzLr799lI7rPNPU1LSaYo31IAMCIOB8BCBAnW/M0WMQ+IfAxj833fDO+x++pm9uxpIo5oXVCFCeUPdnX3jpUx9v73JqdIfVGkZDIAACvCGA/Cq8GQoYAgLWJXDi5Cm2M/nnnJzcrq3HKFrXALTm1ATo7HhBx+io5B+/Xzo7pmPHDKeGgc6DgBMSwCYkJxx0dBkECgsLg998+903rCk+ycsqYKKj7cNOy8FlewJsHNiY0HJ4y4f9szUutjv+/IXM7s+98NInxSUlAdZoE22AAAjwhwAEKH/GApaAgFUIaDQaySeff/nk0WPHRlkr1RITNiKhsF4mk9UoFIpqOiVHrWvUNapUKkF9fb2AYlGtJnysApnHjTCBqdM1ss1nArVazbjrJFKJys3Nrcrd3b2cNgbV0XjoLN2F1rknPHT4yOivv1n2ENmBFTlLQ0f9IMAjAogB5dFgwBQQsAaBNWv/WLD2j/WLNBqtjDaAWLxJJngCAwLyFi9a+GVQUGABCVE9CRxJdU2NZ1lZuX9hUVFYbk5udPq5jC5l5eXeIkpcTgLVxRq2WbzzPGngoujUCcjZ2eTupqwPDQvNie3YMS00NCQnICCgyNPTs4peDurFImFTrUrltnfvvvF/bto8j/7Ooj1goR80DxWrflu9pHfvnsepsT8s2iAqBwEQ4A0BCFDeDAUMAQHLE0hKTun94COPPlBTU+NLni7LN0gtkPBpnjRxwrp777nzY4VcUX9po5SKx6WiotK/uLg4ODcvP+JsenoXOgK0/+H4+BHFxSX+UqmU9Kgr7Zy2iqkO1QgLcNCT51mj1TS7u7mrBg0ckNC/f79DXTt3Tg0LC8sJCw3N8fPzLSHG2ss7vv/AwfR9+w6Oq2+o97V0fLCrq1hQXl4e9NVX3zyelnb6bLduXVMdaiDQGRAAgSsSsM4TCPBBAARsTqCystKbdh4/mp6e0dNa3kUWX0gCp37s2DFbZVJZw+UQSAQznVTS+kmkPzfm5eeHZWVnRx85cnTI1m07Zp46daof3eQqkUiE1goZsPlgmWkACXtBs765MZRE5tQpE9eNHDn8746RURnM8ymXy/8zDpc3R2e2ZwwdOnjflq3bZlnaC8radnV1FdDLUf8flv90j0qtflKp+PeLipk4UBwEQICHBCBAeTgoMAkELEGA8n3esn37zpm0HCuxlgBlsZ89e/ZI6RTT8Sx50gzadUSeuTzqfx7Fqh66fsb0tYnJSX03bNw0d8fOv6fS0r2cCVFL8LH3Ots2E9Gfuh7duyXOuWH2z0MGD9ofHRWZ4eHhUWtM/yhkojCuX9/4jRs3WUWAsheLpuZm1z/Wb1zYq2fPE2TrD8bYi3tBAATsjwAEqP2NGSwGAaMJxB9JGPr0s88vrq2r82TeJmtdLO5w0ID+B/z8/JiX06iLPKeNVICl58koLSvbfS7jfOeVK3+9dfWatTezpPkkorEw30qUxXiSN7mhS5fOqXcuue3TgQP7H2JL7FdaXjdkEKgu/dZt21ODQ4KKqqtrg0Qiy2t+FhJCoSHePyz/+b6Tp04l9u3ThwlRXCAAAg5KAALUQQcW3QKBNgK0scf35ZdfuyM19XRvV4n1xCfzyJFQbGIeLTc3ZZ05I+Lv51dG5ctIoCQtXDD/xy+/WvrI5q3bZkilEldnX5an5famTrExaXfcseTTiePG/RUcHFRoDuu2shEdOmR1io1NPxyfQAJUwkWV7dZB3m1BYlJSv7XrNtxI58WfpZ35qnYL4QYQAAG7JAABapfDBqNBwHACFMc3Y9OWrbNFtMXZmmKNLb+Hh4VlUzzhOUOX39vrVetS8sHa2trEIwkJQz/94qun4uMThpNX19IKqWVPT+vnWmYyryz7MJehRT20VHmjl7dX0S03L/xm3ty5v4SGBudyebZ6eHhYVtcuXRJpQ9JIEvrtDQ1n/52FWCz/ecW9Awf0P0SVruesYlQEAiDAKwIQoLwaDhgDAtwSSElN7fnk08/dRvk2PZl3yZoXWxaOjo7M8PXxYcctcnpRvkrmUd1eVVV9hFL4LF723Q8PUTqncPo7SXsi+/IE+Ox++jTSkn4jC0WkNFGNQpFYxzZP0Yadejelsk6pVLA8mTUe7h7Vbm6KWmKpIbHX6CKkc8z1zS6N+kYxeSJdGxoa5LW1dZ7kqfWqqa31JKHsplbXKymeVcb+O7Utoo+QxLmY+LB/v0ykMluujqrNdplUWjNt2uQ1991z9wfkpTxjifPUmfdx6Xffn6G+NlK74va4cjXAbNd9vVrttvynn+/NzMxKjIqKzOSqbtQDAiDAHwIQoPwZC1gCApwSaNA0SD//8uvrjh47PtiacZ9tnWhsaqSjFqPPel8879sil5eXZzVV/FlWVvaf77z/wcvbtu24XqPVejBh1yaYmGhrFW7NTGQSCx19NHKZVK1UKmv9/f0LoyIjMiIiIi6EhgTnhYWHZ4cEB+f5+nizpOzsXh2JIr0pIo9Ep0ir0Uqrq6u9ikpKgim1VBCdQhWam5dHKacyuuXm5kRXVVX5aLQ6hU6nldJquiuVkej1zS1CtFUct7BjfyeRuDaQV/LU448+9PKY0aN2mGKTMQMREhKS5+/vR1EcFbQMb/mcsW22kfgX/L177/gdu3ZNIbH+taX7aQwT3AsCIMANAQhQbjiiFhDgFQF2qsyBg4eGrFy1+nYSTzaJkxS6iJqjoqLOeXp6MJFo0SsyMiKLGriV0jZN+/SzL55NTE6OIyEnFYtFOoVcppYrFHWUbL0yJjr6TJeunVO6d+uW1LlTpzSWGN/D3d2oHeLGdKR1SVxNZdin4Eply8rK/JJTUvueST/b7XxGZue002d6FxUXhZLn1I1OiVKSV1XG1GiQf0DBvHlzvr+LYj1JFJYaY4ep91LsbUlAgH9RaWmZVQUos1cilQq/+375A0MGD95P/5psah9QDgRAgJ8EIED5OS6wCgTMIlBFHrc1f6xbkJubG2UL7yfzOCoUsvpAf/8SruI/DQEyedKEv6jPyR99+vlTqalpfUOCg/J69ep5fEBcXHzvPr2OU0J2szZDGWKDsfdQhgC2wWpH66elOEvIn5iYHJeYmBR3MjFxAC25N9y+5NbPp02dsuG5Z540tgmT7/fz9S318/ErbqRwCuttX7torpg8rhkZGV1+WbFqCW1Ieh4bkkweRhQEAV4SgADl5bDAKBAwnQDzfu7bf6Dv5i1brycPnFU3HrVZzeI/vb28arxpGdv0nphWMjw8PIdK3k8pp9zc3dx4JzgN6RV5Z8/Qfeyzgt1PAkxpCwHmQ+Pn6+dT3EzjaYtLKpO5/L5m7eI5N8xaRe0n2MIGtAkCIGAZApZP7mYZu1ErCIDAVQjQiUc+y39acXdlZZW/pY9RvNogMA8oxVeq2PnithooexWfV+JlC/HJ7HBTutWS17j68o1b1hpTFgNbU1vn8/0Py++lE5Lk1moX7YAACFieAASo5RmjBRCwGoHGpiYheT/HbNuxczrbyGGr6+ISvFxF6Xs0trIB7ZpPQOwqbpKwMaTxtNXFUkCt3/jnvCNHEobZyga0CwIgwD0BCFDumaJGELAZAVWdyo3lUKQNOHJrpc25UmcvClCFSiqRQYDabDZw07BUItWwXei28oKyXlAIgOLzL796kjZlybjpFWoBARCwNQEIUFuPANoHAY4IULoa8n7uH0dpl4ayYw1tfQmFoiah0MU2wYO27rwDte8qEWtZGipbdklE8zk+4eiIo8eODbalHWgbBECAOwIQoNyxRE0gYFMCzPu59LsfHiQhKrtWMnPrGXl5knXrtYyWHI9As75Z9unnXz3Lwkwcr3foEQg4HwF8kZ1vzNFjByWwd//+sacoZY81E4ZfC6VOp5OSWLC9K9ZBx9ta3dJpdZImvd4m2RQu7SPbUHfs2PEhdDToGGv1He2AAAhYjgAEqOXYomYQsBoBtvy+dt36m3W6RqXVGr1GQyz+lHYttxxByQd7YIPpBBoaNDI9T7yOusZG8vJ//5DpvUFJEAABvhCAAOXLSMAOEDCDwIlTp/ofOHh4jK3SLl1uOhOgajrPmwSo7bbim8ETRS8SaKBNP3Quu9KWG9ouHQu2ESopiRL0Jyf3wRiBAAjYNwEIUPseP1gPAnRGuN7lp59X3kU7hD35goMJ4erqGk9KoO7OF5tgh/EEqmpqvCqqqvz4IkCZHTSvAn748ef7jO8NSoAACPCJAAQon0YDtoCACQSysrKj9+zdN4m8QyITilukSMsSfF2dnJLh+1ikAVRqFQIVFZW+5RUVAXzxrLNOU4ox8cGDh8YWFBSGWAUCGgEBELAIAQhQi2BFpSBgPQLrN2ycX1NTwxsvFes5E6ANGo1rbl5+uFartfYx4taD7+AtlZWVBZSVlgaLyKPNl4vNLRLFQRv+/HMuX2yCHSAAAsYT4M+vivG2owQIOD0B2uij2L7z7+nkFeLdZh+hSCRIP5fevaKiwtfpB8pOARQWFoWWlJYFuvBMgFK4iXL7jl0zaN7zxutvp0MMs0HAZgQgQG2GHg2DgPkEWOL5zKysThQHan5lHNfgKhYJMjIudC+vqPTjuGpUZwUCjbpGUVZ2dmRtba2CT0vwrOtsMxLZFpuQcHSoFVCgCRAAAQsQgAC1AFRUCQLWIMA2H63fsOlG2m3uyZdNIpf2WyQSC06fOdM5Pz8/zBo80Aa3BAoKC0OTk5PjaJ6J+Ta/mCAuKy0PWbtuwwJue43aQAAErEUAAtRapNEOCHBMIC83v0NqamoftgzJN4HAutoSB1rfIDty5OgwVZ1awXH3UZ2FCZw7f77TqaSUAa6u/AvhZXNLo9WIklNS+5WVlSPEw8JzAdWDgCUIQIBagirqBAErEGDL76VlZcFWaMrkJlyELoIz6enda+pqeJMiyuTOOFnBkuLioOLi4lA+vtywoWBe0PyCgoidf++e4mRDg+6CgEMQgAB1iGFEJ5yNAFt+j09IGKVSqT35Fp/XNhbkmRWEh4flzJo58zcfb+9yZxsje+9v/7i4hEkTx/9B46hnMZd8u9i8r6qs9Dt+4sRgvtkGe0AABNongHOa22eEO0CAdwQorjI87czZXnTeulAs5t/XmIlPH2+fkvvvufu966ZNXi+VSrW8gwiDrkkgNjYmPe30mRcqKqt8jxxJGCWT8SvRAvPM0vwXnTuX0b24uCQwMDCgGEMKAiBgPwTgAbWfsYKlIPAPgcNHjoykh24YH5dHmbeMvFO62dfP+OWmG+ctJ+GiwdDZJ4FuXbukPfrQg29GRUWdo2NVedcJNv9zcvOij588OZB3xsEgEACBaxKAAMUEAQE7JEAbe0ZUVVV5C4X8S4NIORoFgwcN3LNkya1fenh41NohXph8CYGRI4btXnDjvO/cPdxr+JbuS0S5ZosoV+nRo8eRjgmzFgTsjAAEqJ0NGMwFAUqPE5Kecb47nTBEu9/5xYOWRAWxMR3P3XPXHR93jI46zy/rYI0pBCQSiW7JrYu/GTZkyC69vrmJT/Ggbbvhz5w904s25Pmb0j+UAQEQsA0BCFDbcEerIGAygTNnzvYoKS4J4dvmI+Ydo+X2hhnTr/ttzOhRO0zuIAryjoCXl1fVQw/c/05UVEQ6i+/l08W8oPn5hZHp6ee68sku2AICIHBtAhCgmCEgYGcEKLl7j7Ly8kC+CVAmTDp37pw0d87sFcxrZmdYYW47BPr160u74idslMvl9XzygjIBmpuXG3nmbHo3DCIIgID9EIAAtZ+xgqUgIKBld9eU1LS+1dU1vDoekXk/fX19y+feMOvn2JiYsxgqxyMgEgmbH7z/3vcotCJN38Sfo1/ZMnxtrUqRlZUV43jU0SMQcFwCEKCOO7bomQMSyMsv6FBQUBhBp2HzqndMgMZ2jD49dcqk9eSZ5ZdxvCJl38awl4x58+Ysd3N3q+aLF5QJ0OZmveDChczOeTj21b4nGKx3KgIQoE413OisvRPIyc2NLC0tC+bT8jsTn+7u7tVTp05ZExYammfvjGH/tQksvHH+DyHBQdl8EaDM2pZTkQoLO9DJSOEYPxAAAfsgAAFqH+MEK0GghcD58+c7FxYV0QYk/qRfYofkRHQIz5g147rVGCbHJ0AvG3Uzpk/7neJ8G/jS25Y4UHo5y87KieaLTbADBEDg2gQgQDFDQMBOCDQ1NQlzcnKiamtrKf6TH/mXmBdMJpPWjx839q+g4OBCO0EJM80kcPOCm77z9PAo5YsXlHlAKyoqPWgzUgczu4biIAACViIAAWol0GgGBMwlUFlZ5ZObVxDJlrz5cgISEyCenp7l48aN3WJu/1DefggEBQUVxsX1i6d52MQHq9u+DwWFRWF1dXVKPtgEG0AABOABxRwAAYcgUEDxbYUU58aWG/lysQ1HsbEdT/fr0/soX2yCHdYhMJ82I4nF4nrrtNZ+K+x7kZmZ1ZlEaGj7d+MOEAABWxOAB9TWI4D2QcBAAkXFxcFFRUWhfNqA5OrqWj986JBdJER44QkzECVu44AAjfseHx/vEg6q4qQKIQnQ7OycaDqkIZiTClEJCICARQlAgFoULyoHAe4IlJWV+1e2nP/Oj69ta/xn3YTx4/7irpeoyV4IuLm5qfrHxR2hecCLlw8RfS/KysoC2HfEXhjCThBwZgL8eJI58wig7yBgIAHmAVWp6uV8if9kZncID8/qFBt7xsAu4DYHIzBpwvg/KQ0nL87mZN+L+oYGaUVFha+DYUZ3QMAhCUCAOuSwolOORkClUilIgIY0NuroOcuPHfDkiW3s3avXMVqG54UAcbQxt4f+9OnT6xjFXmr4YCv7XtBxsCKKkw7VaDQSPtgEG0AABK5OAAIUswME7IAACVA3Wlr044v4ZMiYAO3erWuiHeCDiRYi4OfrV+Lr48vSMfHl9CuXktLSIPq+YCe8hcYc1YIAVwQgQLkiiXpAwIIEampqPSsrKgP5Ev/ZJkA7dYpNs2C3UTXPCcjlsvouXTqn8SUOlL2glZaVBanUajeeo4N5IOD0BCBAnX4KAIA9EKiurvYuLy/355MAVcjldR2jo8/ZAz/YaBkCNB/1sTHRLAZYb5kWjKuVfT/KSsuDVHUqCFDj0OFuELA6AQhQqyNHgyBgPAHy6Cirqqt9+LQE7+HpUenl5VlpfG9QwlEIMAEa0SHiAl/W35kALa8o91WpIUAdZY6hH45LAALUcccWPXMgAnUUA1pTU+PpwpcUTAJBs7eXVyVtQNI5EGZ0xUgC9ELU7OfvVyLgSQgo+37QiWG+anW9wsiu4HYQAAErE4AAtTJwNAcCphBQkwe0vkEj5cf+d+pBc7M+KDAwn52EZEp/UMYxCLDx9/P1KWWeUD70iH0/1PX1ivr6ejkf7IENIAACVycAAYrZAQJ2QKCePDo6rVbEoyX4Zi8vrwo7QAcTLUzA3c2t1sWFHy8i7Puh0WgllA8UAtTC447qQcBcAhCg5hJEeRCwAoFaVZ2bVqsV8kiACtzclLV6vZ43TlkrDAOauAIBmUxWLxS68OI0pJZcoDqtkFYMsASP2QoCPCcAAcrzAYJ5INDU1CRsUPPPo0PLrrwQHZghtiUgErs2ku7jTSgGhaO6NNQ3yPFyZNt5gdZBoD0CEKDtEcJ/BwEbE9A1NorV9Woln7yfDAnbgGJjNGieBwTI+0nxn6RA+TIbhIJmVb1aQS9uIh7ggQkgAAJXIQABiqkBAjwn0KjTudLRglKemwnznJRAk17fIvR4ckIsSWFhiwcUAtRJJyS6bTcEIEDtZqhgqLMSaGxsEtPGChnfPKD0gBc765ig3/9PoIk89IJmHsUCU1RyA21CggDFLAUBfhOAAOX3+MA6EBBQLJtQp9NJ+IZCo9XCK8u3QbGBPfRyJNU3C3jzLGG74mjDnpR9b2yAA02CAAgYSABfUANB4TYQsBUBfbNeqNc38e67ynKTIg+orWYFf9ptoLybdBY8r7IhNDXpRXo9v2ziz4jBEhDgBwHePdT4gQVWgACPCNCuXnqY8u276kLn0/vwiBJMsREBlvS9mWfexovL7xCgNpoSaBYEDCLAt4eaQUbjJhBwJgIU+6nn245zskdYVlYeiFQ3zjQT/9tXNv7VNbWebRuR+EKD7czn23eGL2xgBwjwhQAEKF9GAnaAwFUI0MO0WSwW8+3MdRIeNV6NbAMKLqclwJbeaR540hZ4XhzF2TYQ9H2h3KRIE+a0ExMdtwsCEKB2MUww0pkJiESiRolEoqGHPa8wqOrq3GlzlCuvjIIxViXApiSFYnjzKQCUfU/Y94Uv59NbdUDQGAjYEQEIUDsaLJjqnARIgDZJJK5aluybT5daXe9Wp1K588km2GJdArQ5TlRYWBjamgOUJ29ILs0QoNadB2gNBEwhAAFqCjWUAQErEmDLiXK5Qs03D2hjU5OkqKg4xIoo0BQPCeTk5kbzJw09bT2iM5kUCrlaJBY18hAXTAIBEGglAAGKqQACPCfg6uqqk8tlavZo5dNFG1DEObl5kXyyCbZYlwBtPhJmZ+dGUbwlOw2JHy56WoKXy+VqsUjcZF0aaA0EQMAYAhCgxtDCvSBgAwIs16ZMJm3gyeP9HwLNlJ/03LlzXW2ABE3yhEA95YItLS0NIHN48yxh3xelQqlCjlqeTBKYAQJXIcCbHw2MEAiAwNUJKJVKlatYoufTMjzlJhWnnzvXDePmvASysrOja+vqvPlyTGzrBqQm9n1x3lFBz0HAPghAgNrHOMFKJycgl8nqaSMSr2La2MM+Pf1cd0r6jd8RJ52fZ9PPdaO3Irb8zourVYDqFAoWsoILBECAzwTw4ODz6MA2EGgloKCYNopra+CTB5TZUl5R4VdWVsaWYHE5IYEzZ872oD0//Ij9JP4sLZRSoVDJZPIGJxwOdBkE7IoABKhdDReMdVYCSqVbnYe7ezVt/OEVAjqGUZmadronr4yCMVYhQIcQiE6eShxEjfHmMAKKSxZ4eHpWsk1IVoGARkAABEwmAAFqMjoUBAHrEXD3cK/29PIq55MAZXF/Go1WcTg+YaT1SKAlvhAoLi4JPn/hQgzNA954QNn3w8fHq5ytGPCFE+wAARC4MgEIUMwMELADAh4kQP18vUsp3o5X1tJJSNLD8UfG8MooGGMVAimpqb1VKrWHVRozsBEmQAMDAgrc3NxqDSyC20AABGxEAALURuDRLAgYQ8CdHqje3iRAebYEz+JA8wsKOuTk5EYY0x/ca/8Eduz6exotw8v41BP2/fD18S1RUBwon+yCLSAAAv8lAAGKWQECdkDA09OzKigwMJ8/i50XobHV17q6Oq89+/ePtwOMMJEjAiq1WhEff2QkO4yAoyo5qYbmoz4wwL/ITams46RCVAICIGAxAhCgFkOLikGAOwIymUzj5+dXTA9YcjryZxmeCVC1Wu22e/eeqdz1FjXxncChQ/GjKAY0lE92su+FSCTSBwQGFEqkEh2fbIMtIAAC8IBiDoCA3RLw9/UtpRNeeJWKicGkPKAuGRnnu9KxnB3sFi4MN4rAnn37Jmq0WjmP9h8J2PI7rRTUUAxosVGdwc0gAAI2IQAPqE2wo1EQMJ6An79fqa+PTxnf4kCZCCkuKQnZsnXbTON7hRL2RqC4qDhoz959E9gGND7Z3rIBibyftFJQyie7YAsIgMCVCUCAYmaAgJ0QCA0NyQ0NDc7hmwClM7cFVVXVnlu37ZjV0KDhlSixk6G1KzNZvG9ZaVkQ34xuatILQoIC8319vMv4ZhvsAQEQ+C8BCFDMChCwEwLhYWHZ4eHh52nJm3cWMxF6IfNC5y1bt8ILyrvR4c4gTYNGsmHjpvl1KpU3G3M+XXp9kyAiIiLD3x9L8HwaF9gCAlcjwK9fEIwTCIDAVQl4eHjUXtwJz5u83//YysRIYWERW4afxUQKhtExCWzdvmNGUnJyP3oJ4tWzg21AcpVIGkmAnqecucgB6pjTD71yMAK8+hFxMLboDghwTiAkJCTPw91D3cSzfKBMFLPPiVOJA/fu24eUTJyPvO0rpGNXZRs2/jm/oqIykH/eT73Ay8uzJiQkOM/2pGABCICAIQQgQA2hhHtAgCcEYjpGpwcGB+brebgMLxaLBdnZOZF/bPhzfnV1Da9OyOHJ8Nm1GZR4fuqxEyeHUAyyiG9eeBaWEhIcnBseFppj15BhPAg4EQEIUCcabHTV/gkwARoSFJTLt41IbWTJMybcv//gxJ27dk2xf9roQRuB0rIy/1W/rl5SXFwcQrk2eQeGfR8oRvpChw4dsnhnHAwCARC4IgEIUEwMELAjAsFBwflhoaGZfDWZeUGLiouC1vyxfmFuXn44X+2EXYYToOM2RStW/bok4ejR4UIXIf8CkKkr7ICGSNqARMdwIgWT4UOLO0HApgQgQG2KH42DgHEExK7ipsjIiAylQlHPVy+oRCIR7Nt/YPwf69bPp1yRvDqq0TjauJsRSEg4NvS3336/hcIqPIUi/j0y2PK7j493VefOsWmu9P3AqIEACNgHAf79mtgHN1gJAjYj0Kd3r+PBwcF5fBWgbIOKlk7JWf7zL3fv3bd/nM1AoWGzCRRQZoMflv9034ULWZ2kUn6meGUClFYFcjp3ij1tdodRAQiAgNUIQIBaDTUaAgFuCPTv1+9ISEhQThPlPeTrxbygubl5Hd96+91Xz6af7cJXO2HX1QmwXe+rf/990a7du6fSyjv/Aj/JdJZ+qZn+pPRL5zp16gQBigkNAnZEAALUjgYLpoIAI+Dh6VETGxubJpPKdOwBzNeLRKhLckpa/7fefv/VsrIyP77aCbv+S0BHcZ9r161b8M3SZY+q1fUefNx4xKxm818plzd06dwp2dPDowZjCQIgYD8EIEDtZ6xgKQj8Q6B/v7jD3l5e5Xxdhm8zlGJWhVt37Jzx4SefPq1SqxUYQvsgwM56f//DT14oL68M4Kv4ZCT1dPxmQEBAYd8+vY/ZB1lYCQIg8M/zAShAAATsj8CQwYP2BwUF5pWUlvLuTO5LabYkqBcIpD/9tOIehUKu1mg0r1Msodb+iDuPxYcOxw9/8pnn3qWTrSJdXV153fGmZr0gKCgor3evXsd5bSiMAwEQ+A8B7FDFpAABOyRAMaD5UVFRZ1PTTvelZUjeJQa/FKmQRKi+uVn5zbfLHhEIhM0NGs0bMohQXs66AwcPj3zwkceW5ucXdGIptfh8seV3hVyu6dOnV0JgIM5/5/NYwTYQuBIBLMFjXoCAHRKgnebNY0eP2krnw1fwOQ60DS3zhFKucLevv1n62HPPv/RBRUWFjx1id1iTWa7Pv7ZsmfHI40+2iE++HbV5JfAs/MTPz7doxLBhuxx2YNAxEHBgAhCgDjy46JpjE5gwYdzmAH+/QnsQoG0jQbYqV/22+vbHnnz6i5KSkgDHHiH76F1NTa37b6t/X/TIY08uy8/Ptwvx2Ua2Q3h45oD+/eLtgzSsBAEQ+NfqGHCAAAjYJwFfH5+Kvn36JFCcnl3FVJI3VL5l6/bZ02bcsHvbth1TVCq13D5HwP6tzszKinrhpZfff/KZFz6vq1P58+2M96sRZi9dMpmsnjYfHfH29q60/5FAD0DA+QjAA+p8Y44eOxCBKZMnrndTKqvtyQvK8NPOaklObk63u+57YOWnn33xRF5efpgDDQvvu1JdXe154MChUXfdff+K39euv5USGintRXwyuBRTLPDy9CwbP27sX7yHDQNBAASuSICX5/pirEAABAwjoKWjLmfMmrMvOTlliGEl+HUXi+PT65u1w4YM3nPP3Xd8PHBA/8NeXl5V/LLScaxhsZ5nzpztTmEQi9f8sW5BVVV1MN83G12JPmW/bR4+bOjWFcu/n0ErAI2OM0LoCQg4DwF+b3N0nnFAT0HAJAISevh+8tnn69JoNzwdSSgzqZKrFGo5ZaYlz/3FP2kfEX0orRL7B44uttmF/ifZu3//xMTk5LjrZ1z36/6Dh1azuD5KtG9XoQUcIbFYNWfPpndduuz7iStW/Xr72fRzXckLTdrT/h4B7KVFqVTWzJw2bTXEp8WmCyoGAYsT4O5JYnFT0QAIgMCVCOTm5YXPnDV3b1FxcRQX4pAtb9JZ7k2UPklPpxk1SiSuWpFQpG/QaiQN9Q3SJr1eKBaJhCxHJBfttfWJCQuVSiWI6dgxY/p1U9eOGDFs99BBg/crlAo1Rt50AskpKb0PHTo8avO27TOPxB8dSke4ythRqfZ6sXkSHRWV+vuvKyaGhAQX2Gs/YDcIODsBCFBnnwHov0MQ+N/Djy37Yx2L5ROYdWY3ictmhUxeM2zY4L97dO9+ktLclLop3epEYlFjQ329vLSs3D8nJzcq7fTp3klJKX0oBIBSekpIh3L3U6LT6QS0VKyPiorMGjxw4L4xo0duHzp0yN6QYIgNQycrHZ8pP3Do0OjjJ04O3Lt37+SUlLReGq1WwTye9pBi6Wr9ZF558txqFy9a+Pkbr778mKE8cB8IgAD/CHD31OBf32ARCDgNgVOnkvpeP2febhJvnqZ2mj3cSaDUT5syec0zTz/xPKW4yblSXWwDC4nQyFNJSXE7du6aun3HzilMt3J9ag6JUEFDQ4MgLCy0sFvXrklxffvE94vrd2TQgP6HPD09q03tp6OWI6+16/nzmZ32Hzgw5mRi4oCjx04MKSgoCKPTp+R0+hSn3mpbMWRz1MfbK3/1bysnduvSJc1WdqBdEAAB8wlAgJrPEDWAgM0JNDXpXRbdumT93r37ZrQEa5pwsYc7Lc3W3XPn7R88/dQTLxtSRR4t/+87cHDM198ufTgl9XRPuUzGeVAhxbYKyNNKp97INOQFzY+IiDjfvVu3U4MGDdwf16/PkQB//xJDbHXEe9RqtTwxKaVfwtGjwyjGs8e5jIzuWVnZ0VX0ksDc0szjyaV3mgcMdTfOn7v0g3ffvp8HtsAEEAABMwiY9qQyo0EUBQEQsAwBivMbPvemm7dR7QpTW9Drm3QUe7nz048+XBIUGFhkaD2nEhP7fvrFV4+vX79xHuVnFFtC9DCBzMQoiW2BnMSov59fib+/f2FERIfz3bp2Serdq8dx8pQmBxpht6H948t9lVVVXiT6OyQmJsWdOJk4KCc3Nyq/oCCitKQ0RKVWK8lrLLT3ZfZrsXZ3dy/5Zfn30/vH9Uvgy5jADhAAAdMIQICaxg2lQIB3BEiAyG9efNuG+CMJ4ynOz6TvNhN5QpFQPWvmjJWvvfLS45Rr0eCl7tLSMv8ffvzprk+++PIZfVOT0pKxhszOiymc9CxsoJnOBFe5uSur3BRutQEBAYWdOsemxERHnw3vEJ7VKbbjmbDQ8BxXV7FdpespLi4JyM7Jjjp3LqPLufMXOlPYQ3Refn4EHWPqR0njverq6jxIcEpaxoxSCXCdoYB3E5w6On36tBWffPj+7RRSgAwJvBsgGAQCxhEw6SFlXBO4GwRAwFoEdu/ZO27ujQs30wPa5G3OzMNIO99rp06etO7JJx59hXYcXzDU/vr6etlXXy996MNPPn2BvJUWFaFtNl1MF/X/HybGyP56iUTa4CoWa10lEvanLiDAvzA8PCxzyKBB+xbcNP8nCjfQGdova9y3d/+BkeRBnpudmxOZn1/YQavVyCimV6rV6uQU36kgsSklpq6sr21i0xKeZmv01ZQ2aFxVq3/9ZRKN30FTyqMMCIAAvwhwHq/Fr+7BGhBwLgJ9evc6PnTo4P1HjhwdZ2qOR8qwxHahu2/4c9P8s+np3f/8a/PrkyZO2MRyjrZHUy6XN5Bg+oDd9/Fnnz9HAsrdkp5Q1s6VPH86XaOcfdpOiGJ5TNlSdXlFpffdd97+Kd/EJ+vHwP79E776ZumD8fEJo8ludjxpS0aDNpHJ/rQ0y/bG11b/vZGU97zrZ/zat3fvY7ayAe2CAAhwSwBHcXLLE7WBgE0J0LnYVY8/8vBrzFt0MYm8aVer2JFSwvK+9//v4eW3Lrljbfq5c50NqY28j410qtGnN86d8wMtkWvYarkh5bi8p02UXkx0zz4uAooXLXjr9Vce6de373Eu2+KqLoprbfj0w/fv7d2zZwLZ39hmu8MvrbcDkL1EeHt5li5YcNP3FF+s4Yo36gEBELAtAQhQ2/JH6yDAOQHaiJNCZ2RvoSVcs4UfiR8hOZ88du7afd1Djzy2jE4r6mOIwQqFov6hBx94d+L4sZsoHtTmS93k8VTdfsviL8aOGb3TEPttdQ+FCZR+8P47D/j4+uS1eW9tZQtf2iUvuv66qVPX9urR/RRfbIIdIAAC5hOAADWfIWoAAV4RoOTx5WyZ2dVVouZKxFCOTyHtuh561933rUhMTultSIdDQ0PyH7j/vvc7xcacJhFhhj/WkNaufg8xaB7QP27/vffe9bF5NVmnNO3oP/3YQw++TWY7/QlQbJOZj7d3yc0Lb/qOjt90eh7WmYFoBQSsQwAC1Dqc0QoIWJVA1y5dUm+cP+cnEn7txm0aahjFlAqzsnO6PPXMc59nZmVHGVJu0MAB8TfMnrWCxEM1ExO2uCh2tfbuu+74iI9xn1fjMXPGdWu7detyirzPNhPuthiry9uk/jcuXHjTstjYmDN8sAc2gAAIcEcAApQ7lqgJBHhDwNfXp2LRzQu+ox3s6exoS64uJkKPHz8x+I2333mtprbW3ZB6yRv72eBBA/fRGfM6rjyyhrTL7iEBox8+fOiu0aNG8nrp/fL+0ElPVffcdcenzRRDa2hfHe0+Nm+7dO6UfMP1M39TUkiHo/UP/QEBZycAAersMwD9d1gCXTt3Tps/b86PJPpoIxB3jjTyJIr/+mvz7B9/+vlOQ+DJKGk8bUr6KDQkJNPaXlDa0V9/y6Kbv7W3fHN03nnz6JEjd3Xp0jmpsZHyYjnZdTHVlEBDL1FLY2JjzjpZ99FdEHAKAhCgTjHM6KQzEmApkWZdP2PN0MGDDqjruXUgCYUi+aefffEUnTs+yhC2o0aM2HPfvXd9qFQqyrgUw9dqm5yfzXRkZ1L//nHxJOjsTsR5eHjUzJ0ze6VWp2kyhLEj3dPQoBGMIq/1tClTNkh5lq/VkTijLyBgSwIQoLakj7ZBwMIEoiIjM2+9ZfHXAXRsJTvGkstLpVL7vfHmu29UVlZ5GVLvklsWf3vzwgXf0tIqpx7Zq7VNuUybxo0ds5mWb1WG2Me3e9hpPyzpOmUUqLOWaOcDA7b0HhYWknXHkts+DwkJLuCDTbABBECAewIQoNwzRY0gwCsCY8aM2jFt6uS1Wo2WUwXKUjQlp6X2/fyrrx8zpMOU17L5wfvv++DWxYu+btQ1Wjy2kfKR6oYOGbSf4lY524hlSD+5vMfP36+kc2xsOotl5bJevtbVIrRdXLS0cW3lsCGD9/HVTtgFAiBgPgEIUPMZogYQ4DUBdp77XXcs+bxfv74J9fUNnNnKEqRTTKfi97VrFyUcPTbYkIrZ5qinn3rildtuXfxFnUplsU1JLNY0OCgwPzIy8gITvobYxsd7PD08q/v17XOEeXP5aB/XNtGRo83Dhw7Zs+DGecuRdolruqgPBPhFAEdx8ms8YA0IWIRA165d05b98OPy7JycjrW1tQEUE8lJO0IXoaC8rCL422XfPUQVxhtSqa+Pd2VFRcXrQYGBhR998unzdHanJ53VbkhRg+9hAjQ6OvqcXCG369yRbm7KOopjTbZbBW3wiAkEbOmdcsdms5yfsTEx6UYUxa0gAAJ2SAAeUDscNJgMAqYQmD93zopRI4fvoGVOTj2PtDwsOZJwbNjmLdumG2qXj49P5b333PnZ98u+mUtLzCfq6+s5s4kt4zY0NAhIxKTKJDLuXL6Gdo7D+yh8oCksLDRHLBJxxodD8zirilJ0CeiwgwbadLRu8qSJf3JWMSoCARDgLQFu3Q687SYMAwEQcHdzq8vJzX32/PkLnVJST/enGElOshMxb2pJSUnILytX3UFerC0kJAyKuWw913tHVnb2uVW/rr75h+U/31tVVeVHokvClveNuZjopE+TrrFRHxQQULRowU1rKYXP9wo794AyBt7e3hXu7u41arVaYSwXYxja8t4mGrchQ4ccYJkSFHI5tykbbNkxtA0CIHBVAhCgmBwg4EQEOoSH52zavPmNZ59/6ZOSktIIrpbiSRiJUtPS+vz51+ZZhPN3Y5BGRkRkaTSad2+aP/eXjZs2z1q34c+bzp8/34l5VqketkrDfqfYn22qlK1I66nNRhKdeupDI52hXtizR4+T48aO3jJq+Ii//QP8Sihfqdae4z/bGMqkUo2np0d1XV1dEPXHGLR2cS/FtwrCw8Iu3Hnn7Z+EhYbm2YXRMBIEQMBsAhCgZiNEBSBgXwSmTp68cf/+Q2NX/bb6dnr4K7nwqjFhVFRUHLxz1+6pFH+5xljhx1IOEcUsEp0f37nktq8ySICeTEzsT6K2V3ZWTseKyko/WqaXk63NCqVC5eXpVREcHJzXrWvn5N69ep3oEB6W7eXlVdnqVbWvAWnHWolUovH28q7Ky8t3qH6xzjDPtZtSWTVn9vUrJ00Y/5fDdRAdAgEQuCoBCFBMDhBwMgJMHJLwfPRC5vnYg4eOTGj1MJpFgYlYEhPitLTTfU6dSoyjyo6ZUiE7AYjKsbjNpNbPVashoetirNA1xSZbl2GeXE9P92q93rG2IrGMSzTeDRPGj/vzgfvve88ZxtLWcwntgwCfCDjeeg6f6MIWEOApAba55a3XX38ookP4aa4S1JOYcGGey207dzEvqHFBnCZwchbBIhKKmqQSKeVNdSwBSv1p7NGj+7HHHn3odXd3tzoTpgCKgAAI2DEBCFA7HjyYDgLmEIiJ6Xju5RefezogICCLizPa2TI87T6X79u3f8LZ9HNdzLENZf+fALl59aKLyfQdRoE2UZosikdOf+TBB95EyiXMdhBwTgIQoM457ug1CLQQmDRx4uannnj0JTrusZyL4x4pltPl2IkTA3/6ecUdKpVKAczmE2h1JTuM+GQvO95enoWPPfLg6xMnjN9iPiHUAAIgYI8EIEDtcdRgMwhwSGDhTTf+tOTWRV/QUryWCxFKyeklGzb+OX/rth3XcWim01ZFCaZIg7KP/V9sflH6r9p77rzjo7lzblhl/z1CD0AABEwlAAFqKjmUAwEHIvDYIw+/ecOs63/R6rQG5fC8VtcpvlRQWFQc+vW3yx5OOHZskANhQlfMINCaq1Uzf97cH+69566PzagKRUEABByAAHbBO8AgogsgYC4Blr6orLz8SSYSVv76222U+NzFHG8oJYAXHD9xcvALL77yAf35cFy/vibtije3X45SnobF7j2g5GHX3XTjvB+ffPzRV2lnv85Rxgb9AAEQMI0APKCmcUMpEHA4An6+vuUvPPfMCxPGjdlSXVMjMDc/qFwuc0k4emzYs8+/8Mm27TumOBwwa3WIoj/pZYAEqJHHQ1nLvnbaYS8ylMO1eeyY0VuY+GTzjCemwQwQAAEbEoAAtSF8NA0CfCMQEhJc8NqrLz8xcfy4zTU1tc3milDa3CQ4dvzE0OdfeuWjd97/8PmysjI/vvUZ9liWAB3P2nTdtKl/vPj8M8+EBAcXWLY11A4CIGAvBLAEby8jBTtBwEoEunbpkpaSkvK0RtMg23/w8Bh3NyUtx5veuEwmF2Rl53T++puljx88eGjsb2vWLps9c8ZqQ8+MN71lByppp0vwzPM5asTw3U89/ugrbF450IigKyAAAmYSgAfUTIAoDgKOSKBHjx7Jr73y8hNDBw/aW6dS683to8TVleUI9Tx8JGH0a6+9+d6sOfP//nbZ9/dnZmZFm1u345dv2QVP3TTjLcDKkNiyO5221Th+/Nitr7z0/JNdu3ZJsbIJaA4EQIDnBOw+sJ3nfGEeCNg1gVOJSX2efvb5TxKOHh9JMZ2c9IWdvMQEioeHR7mnp0d5506dTk8YN+6vvn17H+3SuXOaVCph58IbfZHAlZZXVPjmZOdEZWZlR0+aOH6zrwPEG+bm5YU/+fSzX+zYtXu6VCIxmostCmg0muaRw4fvIvH5eM+ePRJtYQPaBAEQ4DcBLMHze3xgHQjYlECf3r1OJSWn/O/xJ5/+/OSpxKG0e1lkrkF0ZGdLFXV1db61tbW+hYVFMUcSEkbSkrxGqVTWzZ57Y3ZEePgFOqGpyMvbq5ziSNUymbRB5CKk49CbXShVlITEpqy2ts69oqKSyheGFpeUBI+dMMW/QVMvVanUSm9v75JBgwYcombsf8ML24SkbxaSajcXvcXLsxcLGqSmMaNH7XjphWef6ta1a7LFG0UDIAACdkkAAtQuhw1Gg4D1CPTq2SOJjta8k3azf3Q4/shYFxehlIvW2dGdrZdQra73FgjqBVXV1QImSI8eOz5KKHShpX/2YRvyXZj6Yis2pHFakrKzP9n/u5AodaV/FraljWIeVkorpSbR5iArPM3/dJ4L7pato1k3csTQXa+98tIj5Nk+Y9m2UDsIgIA9E4AAtefRg+0gYCUCnTvFni0rLVt8/0OPfH/g4KEJJPZk5u6Qv9T0trpcWtNd0nGNYjqx0ajrnzooWxGXthllhAVubvF7XhTdvL3Y8Zrk2dZOHD9hI4nPR8PCQnN5aywMAwEQ4AUBbELixTDACBDgPwE/f7+yb7/+4uZZ109fQUvilUx08Pay013jV+RJfWGhB3xlrdc3CSg+uHrWzOkr3n7z9QcgPvk6UrALBPhFAAKUX+MBa0CA1wQ8PTxqPv/k4zuW3HrL516engW00ZmX9trXnvFrI6Sz4Fm8AS9/qyncodnH27vglptv/uqzTz5aEhgYUMzLCQGjQAAEeEeAlz9qvKMEg0AABP5F4Plnn37xsUcffjUyIiKNEo2Tg45nG2Ra7OGv19Do6cQzDygbbxKfjRERHU6zefDSi889Y3SfUAAEQMCpCUCAOvXwo/MgYDoBcoN+8947b94/YEDcPn2zvoFt/uHLxbyGjnKxc+AvLsHzYxWehV7QRztk0MC9b7/x2kPkDf/GUVijHyAAAtYjgE1I1mONlkDA4QiMHDF8T8b5C3kffvzJM5u3bJ1FKZC8KVWTzft5MW2Rzc3gyICWJfi2/Vkc1WlaNVqtVqBUKGomT56w4dGHH3qjU2zsWdNqQikQAAFnJwAB6uwzAP0HATMJxHSMzqiqqnq0c+dOqT//vOLOC1nZsTKpVGSznei0C56lYHIg/UlHodo2nIAtuTfUNzR36hxzet4NN/xy262Lv6Zcq5VmTh0UBwEQcGICEKBOPPjoOghwRcDLy6ua6vpw67ZtZ75Z+v3/9tOZ72KRSNKWdJ6rdgyphy1U05I1S9zOjzVrQ4y+xj2U2t2FlrzNPgDAVDPYRjMS89pRo0bsve+euz4cO2b0dhpXHqdAMLWnKAcCIGBNAhCg1qSNtkDAwQlMnjRp87mMjHM/rVh5G/OG0mlFfpQU3uq9bm7WO4T4ZOCa9RQDqtfbJF6/vr5e7+/vVzxn9uyVixctWIbk8lafymgQBByWAASoww4tOgYCtiEQGxNzrqam5q3+/folfPXNt48cP35ysFgsllxy8pHFDWNL1hQ56RAitGU/v5W9uWyjUWNjk27I4EGHbl9y6xdjR4/e7uXlybzcuEAABECAEwIQoJxgRCUgAAKXEvDw8Kilf1+fnZ1zctkPP97zy8pVt6tVaj8SolYRhS1L8A5zkZi2ogCljUZ6iu8sufmm+d/Pnz/355iYjmdFQpHDhNQ6zLRAR0DAzglAgNr5AMJ8EOAzAcoTmV1bV/f6pPHjN7/93vsvHz9xcghtTpJbeoNSi2BzEMnEUprq2a5+C18XT7Zqrh8woP/RB++/993hw4bucXNzU1m4WVQPAiDgpAQgQJ104NFtELAWAfeLImY/7ZSf/dMvK5d898Py+0pLS0OZELWcDQ6VCZQ8oCym1XLOY5bXkzaSlTz84H3vTJk8eWNoSEgeNhpZbnaiZhAAAYEAAhSzAARAwCoE2E55rVb32ayZM9Z8/+NPd/2w/Kd7Ght1buTdk3HtEb24ZO0gMaDUF5aInrJLcXqx1EpUqVahUFRdN3XyuvvvvfuDyMjI8xQmgR3unJJGZSAAAlciAAGKeQECIGA1AhKJKzs8PpdOTXrphtkzf3vvg49f2H/gwBgSph70d1KuNiqxnePWjJu0KEBagm/mcBc8E57EWefqKlYNHzZs97133/HRoIEDD5Hw5M9RVhYFispBAAT4QAAClA+jABtAwMkItC7vplC35x9JODr4iy+/fuzwkSMj1Op6XxKiYiZEzXH5Ue5Mq+8ct9QQMiFtbgwoE50sxpO4NiuVyor+cX0PL15089cTx4/bgqV2S40c6gUBELgWAQhQzA8QAAGbEhg0cEA8GTB3167dE7778cf7k5NT+1RUVgbqGhtllMzeJCHKBBc7DcmmHeOwcVp+N2lZnHEgQS8g76bW28ursmuXLimLFy/8evLECX9SflYNhyaiKhAAARAwigAEqFG4cDMIgIClCIwbN2YH1b3j4OH44b+sWHn7iZOnBubnF3TQaDRKlr7J0OV5Jro83D2qpFKpQwgshUKu8vfzLyYPJtvXb5CoZt5OJjwlEokmNDQkt1ePHidmXT9jFQnPTWLXljAIXCAAAiBgUwIQoDbFj8ZBAAQuJzBsyOAD9HcHEhOT+vy2es2iU0lJA86mn+taXV3tQSJUQmL0ml5RrU7XNGBAXAJtenKIs8p9fHzK+/TplbBl2/apJKqveiRnm7eTxKee0ifVRUVGZAzoH3do5vTpqwcPHniALb9jtoEACIAAXwgY9DbNF2NhBwiAgPMRyM3LC/9z0+ZZzCOalna6d8b58x3pfHKJq6srhS9eXKJvWXKnT31DgyAsJPjCB++9e//4cezMcsfY0X3s2PGBDz/2xFfJqan9FHIFi+VsmQhtsZ0UriCgcAVtWFhobveuXZP69e2dMG7s2C09e/ZIdL4Zgx6DAAjYAwEIUHsYJdgIAiAgoKV4SfyRhOH0GZZ2+kzP5JSUPjk5uR3I4UcaVChwc1OqY2NjTt+6eNHXN8y+/je5g8U47vp794QPP/n02VOnkvqrVGq5UOgiIAHeFODvX9atW9ekXr16HO8fFxc/sH/cYV9f33JMGRAAARDgMwEIUD6PDmwDARC4IoGS0lL/U4mJ/c+lZ3SuU6mV5BBsJiFW3I/On+/Zo3uyo2JLP3eu04GDh0YXFRUHk/AWKRUKVXR0VEbPnj1PRkdFXnDUfqNfIAACIAACIAACIAACPCCgb2KnI+ECARAAARAAARAAARAAARAAARAAARAAARAAARAAARAAARAAARAAARAAARAAARAAARAAARAAARAAARAAARAAARAAARAAARAAARAAARAAARAAARAAARAAARAAARAAARAAARAAARAAARAAARAAARAAARAAARAAARAAARAAARAAARAAARAAARAAARAAARAAARAAARAAARAAARAAARAAARAAARAAARAAARAAARAAARAAARAAARAAARAAARAAARAAARAAARAAARAAARAAARAAARAAARAAARAAARAAARAAARAAARAAAb4TcOG7gbAPBPhGQKfTidUqlbKmptajuqbKi/7Zrb6+Qa5vahK12Ori0iwSixtFIlGTXCarl8qkDQqFUuXh4VFNnxpXV9dGvvUJ9oAACIAACICANQlAgFqTNtqyOwIqVZ3i1MlTcRcunI85e/pM95yc3AiVus6tXq1W1Dc0KLRarYwEqbSpsdG1ublZeLGDLs0uQhe90MVF3ypEda5iV61E4qqRkiCVyWQNPj6+5WFhYTmBgYGFQcHBBVFRUee7duuWKhaLm+wOEgwGARAAARAAASMJQIAaCQy3Oz6B7JzsDuvW/jEvOSmxX0ZGRueqykpftVrtrqpTKRs0DVISmgL2uejsvPgVavvz/+mwey75N/YvrFzrvSQ0BSRESZRKG8hDWq+QK+rc3d1qQ8PCsvr1izs6cPDggyNGjNjr+LTRQxAAARAAAWckAAHqjKOOPv+HQFVVlefOHTsmrVq54paMcxldqqoq/RoaGjx0Wm2LuHQRCi/+2So4zUXYJmDbxGzbn0yYyuVytZwEqZ+/X/Ho0aO3T5s+fd3QocMOmtsmyoMACIAACIAAXwhAgPJlJGCHTQgUFhYG/fjD93eu+2PtvMLCojBNQ4NXU1OTQEiC88qeTcub+Y+HlTymEqm0QSwS6br37HnqwQcfemfM2LE7ZXK5xvJWOGcLn33yyaMbNqyfrdVo5PSyob+MwqW/l5f4t/+5q+Xv6P/0NFYfzpk3b7WlKb7z1lvPb9++bQq9KEmvYG97zbfYS3O96ZHHHn9nxsyZG9or4Iz/vbq62uPZp5/+KCU5qc81+n/5fPjXXGnS60UhFGrzyOOPvzlkyFC8TDrjREKf/0NADCYg4IwEampq3P9Ys2berJkzHsrOzo5p1Grl5N5s8XDS5iGbIrnU00rxpSzGVHbs6NERtyxeNPC2Jbd/Sd7ZV7y8vKu5MJLEtlCv1wvpz5ZOkxjRX/K5ksjiolle1lFRWeG9aMGCaccSEoa5SiQm20gvEPpPPv74cY1Gs14qlWpNrqidgqUlJf5zZs+anpycPNDMOav77NNPHqPmIECvwDwzMzOaXlBvpO+hwtSxZC+VZ06f7hkSGppHdUCAmgoS5RyKAASoQw0nOtMeAbaDPT4+fuhNN85/OSE+fjTdT3rv4hI7H69Ll/zJOys9cfzY4Nzc3A5ka7I59lJMq/x8Rkbsxx99NOXwoYMji4uKgrQ6nauPj09l3779jg4dNnRfaWnpIW9v70pn2Rilb2oR4q5tcbpm8BU2NtLGtLasCGZUdK2i5FWjdholTNyYGRriyjbSse8GMjT8l3hTU6OYOLuayVjQTONFmxalFpoOqBYE7I4ABKjdDRkMNpUAbSby+m7p0oUvv/zSO406nbJtmd3U+qxdrpFCA6Kio9ODgoILTW2bvHKSC+fPx9x/373P7fn774nkCfaiB6u47eFK/02QcOTI8K++/OIR2pl/7pHHHnurprr6Dw9Pz1pT27SzclyFJXFVj7Xw2Zu91uLCZTvs3capVhW4hIe6HI8ABKjjjSl6dAUCebl5Ya+++spTP37//d20XOlqb+KzrUsdO3Y85+/vX2bKINfW1rqt+OXnBR998MGT+fn5Hdmy7ZWWbunvhOzvKTSh8wP33ff93r17x54/f/4VavuCKe3aWRl7E2L2Zq+dTQeYCwIgYCkCEKCWIot6eUMgNSWl+/8euO+D/fv2TaDlZH6utbdDi22M8vXxqYmKijZJBNbX18uWfvvtXR9/+MEzlZWVfrTU2u74tApU4apffllM3mNvioV7kLyiWe0WxA0g4HgEuBD6dvnb43hDiR7xhQAEKF9GAnZYhMDptNNdn3nqiY/27NkzQWLGxhKLGGdEpUyA0vL7+eiOHTOMKPbPrXv37Bn7/dKl91ZWVPgZu8FG6eYm2LJ58/QOHTpk19XVPe3m5qYyxQaUAQEQAAEQAIE2Angjw1xwWALp6emdHnv04S/37d1r1+KTDRBtahGEhXfIDCcRaOyAFVGqqZW//HLbhcwLMcaKz7a2FAqFgIUvHDxwYASJYS68QcZ2w1r3I0bPWqSdsx3ML+ccd/T6CgQgQDEtHJJAcUlJwLtvv/0i2+lOx2HafR+FQpEgIqJDJu1SrzC2Mwf27x/F4jgNWXa/Wt1skxLtunb9btnS+yiW1MNYG3A/CIAACIAACFxKAAIU88HhCFDKFNHSb75+YOvmv2ZzeXqRrUCx5XdKh1TVqXPnM8amyWH5Tint1LCKinIfM3NFCiinpWDfnj1jcnNyWBooXCAAAsYTcOTVA+NpoIRTE7B/15BTDx86fyUCG9avv4GWnJfUNzTIzRVdfCBMieIFAYGBhZFRUeeNtaewoDAkLS2tl5CjI0SJqSLx1Km+JPJTaUPX5ScFtWteeXm5T15OTgTLYdl6c3sP5P8sWYrEoqaO0R0z3Nzd69ptEDcYSgBLw4aSMu8+cDaPH0o7EAEIUAcaTHRFIKAd7z0eefihh4qKikIdQXyyMWUe0JCQkLyOHWPOGTvGtbU1Hsz7yVXaKZa1PycnJ5Il5iZbjD4S9P1333lu39594yl5+rUE6KUP6f88sIVCl6ZRo8fspPafMJaHAfdDIBgACbeAAAiAgLkEIEDNJYjyvCLw+++/L0hKSurHBJe5J5fwpWPspBsmQIODjU9ATyevSCgFk4LDk55c6lR17mRTe57LK+KjYyP7pKWl9jKLLfGgWNhSs+pAYRAwjgBeTIzjhbtBoF0CEKDtIsIN9kLg8OHDQx975OFpdGSlzJwNN6b0l4lE9qGL/mj5B/YX7HD5turYP1w89rP17wwRyGz53cvbu7pb9+7JphyJSWUaJa4SbattpnTtsjLNAqlEqmHnxZtSGW0Ia+JibIyNhTXFVjPLWEuwcNUOV/WYiQ3FQQAEnIUABKizjLSD97OBEq0/9cQTt9ISfE9r5PtsFXRawqqXyWT1lBuzNog8lP5+fiUenl5VMpm0wZWEX+PFc6TFWo1GSuevKykJvG8F5eKsrqryZLvJyUMpY2KVxCgTANLLRSlbfvfz9S1jG5BMGUIPD4/qgICA4vSzZ7oKDEg+314ben0zpYMKz6bwhqb27r3KfzfJc3qFuriqx8RuoBgIgAAIgIA5BCBAzaGHsrwhEB9/eOiBgwdGkWeuxctoiYuJTqpeRymRNFHRHc+NGz9u+8CBgw7T5qALAf7+Je4eHjXMM8jEZKugbDHjn+Xqi15SFz3FP+poabysrMyP4ikjsrIyo8+cPtP16NGEoelnz3Yh0elKnk8xfaStHtCKiIjITFP6xERxTGzMmT17do+WmlLBZWXIo6rp1q1biineWA6a/6cKUuuWGWQujURdjkQAHmJHGk30hRcEIEB5MQwwwhwCGq3W9a3XXx+feeFCFAkjc6q6YtmLwlOkCQoKzB8zdsz2mxff8n2/fv2OM5FJgtPUB1M9NVZNH7az/W8Smi2Cqqy01J+E6MBt27ZN27VjxxRKo+TRs2evkzExxm9AYvV5eXlVL1v67Sny0mqoH//xsBoDS6fTCQYNHnwkJjbW6M1QxrSDe0EABEAABByfAPdPa8dnhh7yjMDptLTue/fuGU8izpVrAdpMMZi0pF4yduzY7Y8+8cSbXbt2Pf3JZ59zTuASIVtClW9iH1VdnfLChQsd2RGY5ngch48YsXfI0KEHiNE4uUxuku2tMa6Nc+bOW+np6cmEs60vU4W/re3mrn3m6b8YuoELBEAABOyOABLR292QweBLCdBytfDYkfghJ0+c6MPF5pZL6ybR1RTTqVPSW++889DS779fxMSnNenTGeyqnr16JXmSF9Ocdrt06Xpmzrz5KygetIriUY2uiolP5v2cMHHSlukzZqyjGFud0ZVwWeDiFi9c3BJASAO3PFEbCIBAOwQgQDFF7JoAnXMevHvPngksbpLL2E/ypjb1i4s79NnnX9wxb/78X+0aEhm/aNGi5Xfffe9n5GltaCQxaejFYlCZ+KRd+CeeeuaZVwMDA5mH1sZXiwKFYLLxKKB5EAABEDCHAJbgzaGHsjYnwJaoT5w40V/CwQ7vts4wwUXiM+G999//X6/efRJt3kkODKBd6/rq6ur3dY068U8//nhnVVWVH/MYXy1BPfN6Mm8pnTqkGzRo0JGnn3325f79+x/jwBRUAQIgAAIgAAICCFBMArslQEJRvGzp0t4FBQXBUo4EKBOftOEn9dXX33jCUcRn2wBT7GYN/fOzP/7wQ8aa31cvTEhIGKRW1SlFInFLblL2YcKTvMl6EqzNlPg+f8KkSVvuvfe+T7t265bGl4mCFfh/jQQ8wdaZmAj6sA5ntOJEBCBAnWiwHa2r5MXzSjx1Mq6J8mwKJBKzu8fEF+XvVD386GPvDBs27KDZFfK0gltvu+37C+fP79myZfN1FDvbPzc3N7K2psazsalJRJuU1P4BAUWdOnc6S57PQ2PHjd/hzu2Z63x/kNuToOM7S55+A2AWCIAAHwhAgPJhFGCDSQTKy8v9Thw/PoCrzUfM+zlj5sz1U6dOZbvQHfqK7tjxAnXwU5YQPzcvt0NtTa0HS5gvl7cI0JLw8PAcM1JMWZ6diUeBWt4wtAACIAACIGAIAQhQQyjhHl4SyMvNDU9PT4/lQoCyE4eCg0NyFy++9TtvH59KXnbYAka17rBPtkDVlq7SnjyVFmHh9AAsQhWVggAIWIsABKi1SKMdTgnU09Gbn33yyQCdTuvKxdGbDQ0NgnHjxm3r1af3SU4NRWUgAAIgYCIBdkCFWl0vb6hXy1mIDKuGwoQ0CrlCLZFKDU9nYWL7KAYCliQAAWpJuqjbYgTqauvcUlJS+nCReJ6lGvL1862YNv269d7e3lUWMxoVMwJte4jMc+AhATtmk30SuOa8P3fuXGxyUnKflOSkPvn5+eE3zp/nra6rc1er1Uq2N5B1mWWmUFCozE3z51WHhITmBYeEFPTq1evk2LHjtotdxU32iQVWOyMBCFBnHHUH6LO6XqVMTz/bRUw7uM29WOxnr569E2M7dT5rbl18LU+ZAkIoZKGDgbtW/nObnrwvLC40LDw8z5w+ugiFeirPPi0PUxOv5vKyMv8j8fGDXVyEtHXsijlB/9UHdmxqdFT0eT9/v3IT2zS2mIGoja3WYve3a29lZaUX2/hHqRJMenmgBlzcPTxq/P38yrjoRUN9vbSgsDCUjGnX9iu1x+aOj69vuYeHe60B9pjUxmX1snn/r6uhQSMhsdl7z5494/bu3j1x3pwbOqhUKne1SuWh1WplTfomQbOeZjjNcvq/lrLs/1nGCpZCjcKP9OQJrVcqlbXeXt7lD/3vfwdvmDt35ciRI/ca0CfcAgI2JWD+09um5qNxZyXAzkwvKigIJUFjNgKNRiMYNnz4noiIiCyzK+NhBclJSb3uv/eed06ePBlH+VK1rSa2iYj2HqwtHku6XCg1k/bA/v230NGeBwztJjupijY6eZ09e7bLwQMHRv700/IuVNYc8ckevi7kKeq2aOGC9a12XNqHK/WH2d8cEhqaU1RUNCsoKKjYUPtx30UCp0+f7nLv3Xe9RTl3B4guvkSYIkLZ0Ok2//XXA1OnTfvLHLaFhYVBixfd/E3iqVNxJMTahJ0xNjXT3BSFhobm7ti+/aUJEyduu4Y97X1HDO2KnvrfYisT8zu3b5988003Lk5NTelVW1vrRWFASnb0L/tNaztUQySkr8o1fuLY94vEqpId21tcVBSUmXkhdvNfm2ZdN3VK6v8efOjdSZMnbzHUONwHAtYmAAFqbeJoz2wCLC5q059/htbU1nqSKDKrPrb5KDAgoLJnr56nyJtg/DmVZrVuncJpaWndDx86NII8KsqrJZ43xBLyzAjSz6V3Jo/xYWJ1xaU+8pS6lFF2gjOnT3c7cfzYwIU33TicCWB6wLJd9lLirTSkrfbuoXqkFRUVge3d1/bfW48TdT1/PiOG/s4aAtQYMWRoN2x239kzp7vROMaVFBeHmhP2wr5vGzesn0Nzcbs5R7qSB9yPXobG0sujm6knoLE5QXMo4OTJE/0J7LUEKCfchZRbl30P1q5ZM2/e3DkPJScm9ifBKWliorPVo0luTaPaasvf21aIvmMSErdsdWB0Wmpaz2eeeurH51544SU3OtbXqIpxMwhYgQAEqBUgowluCbB0QXl5eR3oISZSKBRmVc4eiB1jYjPCO0Rkm1URjwtTH8V6etgy8WmOAGVlaTmQPSH/I67olCWPtb+vvnHODbNnkfjsWlVd7U35WWX0kJe0LB+yQvSQ5fIypi/MBmpfpG+No+PSDhvXxZV37prdoA0wYraEbu4caj1hy9VcZswjT/bomT2mzqu2eUkvtMapPhOMb7XRdeeOHdft/vvvKczb2fadMGYet9f0pYK0trbG99tvvn74+PFjg44fO/ZwXP/+x9srj/8OAtYkAAFqTdpoixMCdJa5uDA/P4yLH2523GRMbOxpWoozK7aRk45ZthJu1d8lthJD0S+//HzDgw888I2cXgguFwSmCgTL4rBs7UwgsbhTS7bClp5bB7UlLNCSbXFYP1dMWH+56DNX9hiEn74rMvabY43vBGuDVohECfHxw5947NEvEo4kPNi/f9xR5ok1yFjcBAIWJgABamHAqJ57ArrGRtfCoqIQLgQo84LQxpoc2v3uyLk/LSpQWCxdVUWF36Wxa9yPOic1ciFY2jWEPfgrq6p8KOxh6MGDBzVXKWCoLZeLhZZyNPebEhMTleRJU7QKXUPra9f+a9xgjTaMsY8LzyXf+mRM/w26lzYpCY4ePTro6ace/+SDDz++jwoh1ZxB5HCTpQlAgFqaMOrnnADFILrm5GRHmytAmfh0c3dr6NChQxY5Cv6zQ5Vzw21bIZdej//U1bq5wqJC17b4jGu9orw8dMZ1U3e1Rh8YV9jAuxlzmUwmoJhMa4koa7VjIAFOPKB865OhfTfqPjrhTBB/OH7wRx9+8FRxcfGDgYGBJUZVgJtBwAIEIEAtABVVWpZAY6POlX5EA81dxmLxn5SGpdLPz6/UshY7Re1cLYk6BCw2NxUKTvZbXYsHFx5Aa/N2CsFnbaiGtEcbkQS0AWp+nz59j5Pn/FN6ebmad96Q6nAPCJhNAALUbISowNoEaCMJpfap9jBXgDIPqKeHZ7WHp2e1uX0gr6yIpUSherh6wF6pnv/3PFKMoUwuN+YBwpVdV0PFpYfV3OFAecsQsPQcsozV3NTqEH2X0nL8t99+88DQYcP2E5Z4btCgFhAwjQAEqGncUMqGBNgSfHV1lYe5Z8CzE5DcPdxrPNzda8zpzp7df4998/XXxlFKGMllG0/aRJkpD69rCVDK3tIsev+9d8vmzpu/kvKX5phjP8qCgIEETJnHBlZts9scsU9XhclSaGVlZnb4ffXqBZQSKsXd3b3OZuTRsNMTgAB1+ilgfwDqVHVKSsEk5kSAurtXu5MX1FQKzOt5x5Lbbl/xyy8LWE5Sc72yBtrRkhheq9UJfH39SkiQL79aXk4D6+PqNr7HgDqV2OBqUFvr4SM7PtrEMXbuq2NL8Wt+X71g3k03/kK1J3DfAmoEAcMIQIAaxgl38YhAHZ2NbO4GJNadlk1Ibm41bm5Kk70ATAiqVGp3trTFAv2tdLU8eCmOS0/5N73Ik8uy8fPhDGgIAitNAAs0g7G7OlSHYsN+O8vKynw3rt9wAx0ukULHeKotMJ9QJQi0S8Aeg9jb7RRucFwC7BSk2to6d3oimP9QIAFKwrGBPsbEUv4HrlB48Xg9W1yXHENoi+bRJgjYkgDijk2kz7In/P7brwvLy8t9TawCxUDAbALwgJqNEBVYk0CLx7Guzo3Wus1++LAKJBKpho4EbDsf3Zpd4aItLjc9cWEP3+swe87wvYOwz2gC5r/IGt3kvwuwlRiWkYM+FNutb1mZYRc7yYB5K1ncprlHDl9uIquvoKAg9OSJE3HUbh79O74bZo4jihtPAALUeGYoYWMCFPMo4coEsVjUKBaJHPIM+EsYWfwhSw9Nu1hNYS8wXM0d1AMCphJoPZKUicwm2ghU2b1Hz+TOnTunBocEF/j6+paxeisrKnwKC4tCDh86OPLUqVO96djhFkHK1cVi6Ldt3TJ9wsSJ26jOeq7qRT0gYCgBCFBDSeE+3hCgk5DYvOVESAiFIj39qjvD2z8nvK40CchD0xgaFp5NZ78zLw4T822bkS7NDcr+rokeoGLm2DF3MtEDvJF5i1rnAWunbQwv3Qj1T59bz4LX0YlXFea27aDlLTY/HJSXSd1qE57e3j7FEyZO2DJx0qS/+vTuc9LLx6dSKpFoaGeljryRLS/E9F0S07Gdrmq1WpEQf3jI22+//WJKUlIcO9mIi4t5Vg8cODCa4kBZwloIUC6gog6jCECAGoULN9uaAPNgNeq0rlycs812rNP/nEF8cj1s/xIr7BSpstLSv9/94MOHKT2Wt9BFeHlMbItAZLGyv/366+K8vLwYM18gmqOio9NvuGHOytYNWO32jxnQrUf3pK7duqW1ezNuAAELEfAPCMibOfP61YtvuWVZZFRUJoX/aK6x/M1Cg9hHRZ+N5zMyUl9+6cU3N6xfP4/FcJp7sd+/vNzcDvl5uWFUV4vXFRcIWJMABKg1aaMtTghQiBQ33hqqiAkYfbPe3PqcXsT6+fuXkcfmsysM8L9SMx08dGgkCdBYcyYCvYToQ4JD8h5/8sm3jKmHvbSQB9bpx8oYZjy/127GksV40olrJU89/fRLC29etJy8j0ZnregYE3M+KTHxjZKS4mA6VnMEy7xh7sVCZ5KSkvuQfUlOcByxubhQnmMCZi+FcWwPqgOBaxJgIoJil3RcxPKxpxcJUGGz3j7iF68CxlzxzNmMYw+wK3yaL/07trGCgwZbfreu0t6VbGj5O4hPDsg7bxVmz1uagzo3N/daU8RnG/ZevXsn3XLb7d/4+PiwFz6zR4O+Ey7JSYl92e+g2ZWhAhAwkgAmnZHAcLvtCUgkrmxZihPvh0arlVBCd842NdmeDu8tMPtBTj28NLaU9x12IAM5+c7xjIfd9WnatGl/jhk7dntjo85slOyF8PTpMz0hQM1GiQpMIAABagI0FLEdAeYBZamTuLCAOeO0Go1Mq20wfy2LC4Ocow72wOfioc9FHc5BnF+9dOZx4+TFydPTs2bAwIHxnp5e1eZ6QdlvYG52ViTVww6zwAUCViWAGFCr4kZjXBBQuilUlCzPbE8a+/Gtr69X0MdqRxhx0X8b12Eud3PLW7r7nAgktttZo9FY9GhSmr962sTCnFh8Z2rpMbOX+jkbp35xcUdDw8JyTqel9TQnRyibOlXV1Z719Wr2G4id8PYykxzETghQBxlIZ+kGi+M7dvRoNT3ZzRYKQvrxra2p8aqpqfVwFn7op3UIKN3cKgcPGXqMQuzYPGUrTZfPV2Pn77/ECxOf7MXpdNrpHiQevCFCrTOuZrbCmQDt0b1HUocOHbJSU1J6mmmTgFI9SSiLhT/VgxRl5sJEeaMIQIAahQs384GAm7t7DTuS01xbKP+noE6lcqeTldzNrQvlQaCNAPN+BgcF5X7x9ddLWo95vTRPqamg/jXf6UWsqZBOsrljyZIVGelnfSh/pKn1opwdEqAXHPVD//tfgVgkZinPzAqlo4M9ZOXlFX5Uz1k7RAGT7ZgABKgdD56zmk4ngtTLpFIWgW9W7CZbfiIPqEdtbY3JApTFpJIHQUSxpC1H5rXnmCVtwnaFsx3cZgtoZx1/C/ebq3FpDgoMLKYlcvN3ilylw2VlZQKJq1hnrCvVwvxQvZUIUFqnUqlMqqXfH5k5URgsFROFi5j1W2qlLqMZByMAAepgA+oM3WEn79DJIeXVVVUh5hxNx8pW0HF39CBny08mXSy9z9Jvv91UTnXUNzQoL0nCfiUh0ywUCZsqKyr9SktLQqlBawb+cyWsTOJkgUK8110kDNjvq8UEKKufi3RkFhgb+6ny4pY4u/xuBAYFFtLLuKqqqkpmThwoEbDL/tvPJIOlVyMAAYq5YXcE6Me2ycfbu7KqsjLEHONbBahnYWGhWfXcdNNNK4YOG3pQ06CRtueJoFMo9bt27pj8+WefPl5bW+trjoA2p+92XtaSm3u4ErbWeqhzZa+dTwnnM9/Xz69MKpM1sJAPMy9rzVUzzURxRyMAAepoI+oE/bl49nhY/vnz57tSd02Of2JikaUxKSkuDiLxKGHLWabgo5hUdlReqqFl/9y4sYOrq0TDwYPD0CZxn+MSgHiwzthywdlspXhpV5VKZR39FlrMw24drGjFmQmY/PB2Zmjou20JUFydNjy8Q7a5OfBYL1jcZmZmZkxxSXGgtXpFQf8SFndlrfZ41g6nD2Ge9c3K5rSkIuNCGFnZbjTHBQEJnQiH4zO5IIk6bEXAWR+CtuKNdjkgwI7ijIyOyuBiJzzVJUhOSuqblXmhIwemoQrrEIDwYpwh5a0z23jailjsqqNUcpgFPB0fmNU+AQjQ9hnhDp4RYB7QqIjIC83N5qdiYsH7ubm5HTIzs6J51k2YAwIgAAJXJcA2oGETGiaIPROAALXn0XNS21ky+oiIiCy5QqkyN46SxYHSbmLByZPHB9COeG8rIsXSqRVhO2JT5Ppi7i/MI0ccXAP6pKfjM2n/ERfjDy+qAbxxC/cEIEC5Z4oarUDAh3aAhoWG5dIyvNmtsWX4owlHh+Tn5YWbXRkqAIGLBLgQBmAJAlcl0NjURGm4zF8FAmIQsBUBCFBbkUe7ZhGgHaCqbj26pzQ1NZr99s4EaOKpk70TE0/1pY1N+E6YNTJWKwyBhyBQq002PjbEjmJlIpSPtsEmEDCEAB62hlDCPbwj4O7uXtuvX1yCVqszW4iwZXiRUCT444+1NxUVFQbzrrPmG2Q2I/NN+KcGPtnCYbdsUNXFVy/wtAF6PjRZX69WNjU2uraXe9gAW5vZiW4G3IdbQIBTAhCgnOJEZdYiIJfLG3r16nWKnYnNRZuU0Fmwe9ffEw8dPDiSvKB4qHMBFXWAwH8JOPN3i9O+0wlI3lwcocl+Q9kLPSYrCFibAASotYmjPc4IhIaG5sfGxp4jLwBXdbp8/tlnj+Xl5XXgqkKe1APvBk8GgkszsAGJS5r2V5eqTuWmo+NYzfWAsmT2Xt7eFfZHABbbOwEIUHsfQSe2PygoqGj4iJH7GjQaTiiwWNAj8fFxS7/95n6tVuvKSaVXroRTT4gF7UTVIODgBFgyf/t8P6OsHb7kAZWY+2MilUrVXl5eVQ4+0OgeDwlAgPJwUGCSYQTorb1yyJAh+2kJqdHcdExtLXp4eAiWfv31Q6tWrlpkmBW4y8EImPs8b8PBVT18wcs3lcY3ewwdJ07mBaWOExUXFwXr2Iuy0PTHOPvd9Cbvp0KhUBvaAdwHAlwRMH3mcmUB6gEBEwmwfKBdu3dP7dKly1mWy5Ori3aWSt59+81XVv/2201c1XmFejh5EFnQPktVba/CwVI8TK63WWB1753ZY8eWi3W6Ri5WF9j3x2x7TIZvWkHOvvOVlZU+JSUlQew0OHMrDQoOLqDfUvPz2ZnGBKWcmAAEqBMPviN0PSYm5tzIUaP/ppQknHWHnY5UUFAQ9vKLL76zbOnSezirGBVxRqBJrxdxVhkqsiqB2toaT6s26ICNnT1zpltRYWEoCUezesfyKEdHRWdgF7xZGFHYRALmzV4TG0UxEOCKAO3erBs8ZPBBP3+/Ci6S0rfZxeJBKSVT+NtvvfnK448+8nlWZmYUVza31sOV94arejju3pWr4+JBx5YNq6uqvJw+ZysbeW5Owml37NmZ41yMHfOAFuTnh9ELBJ497VK/+g3Hjx0dzDZLspdlc64WAdqxYzpX2UTMsQVlnY8AfgScb8wdrsfDho3YN2rU6N1cekEZJNodKqisqAj4afnyuxbdvPCP11955fWsrMxIcwGSuNVy8TA31w5blGdCxvx2m9m4+KalpvYwv67/1GDuiqYFTLJ9lWzOcrFMywRoPgnQwvz8UHN6RfXY45IxB3NfICgrLfU7evTo4NraWjkXHtDYTp3OsHAmc8YDZUHAFAI4RcEUaijDKwJBwUFF48aN3/b3rr8n6HRaD3N/lC/tHPMwkMfNNTUlpc+F8xc6bdiwfs7tt916ctiw4Xv7UiL8mNiYdOaFvRoQFqNF8aliVV2dW1FxcVB2VlbU2jW/z6FlSB8u7eTVgFzDGLlMrmbimy6ThZ6Li1BQXlEe+OuvqxZTU4/bS9/t2U7Kk9vARCgXm/0aGhqU27Ztm0o8PjeVSVV1tReVNXkOmdquOeXYbwH7mFMHK7tz587Jx44dG8RekM252Fiy3e8RkZGZEKDmkERZUwmYN4NNbRXlQIBDAuzHs7Cw8M9tW7de99dfm2bQjk4Oa6enHHlt2I+9VqtRXLhwoXNOTk7Mzh07pkkk0npXV7Fm2JDBFb4+PmUyubxeKBQ16Zv1QnrQiOrVauW40aOVVTXVng1qtZwtOzbSBgyNpkFJy8cSc/P3cdpJK1Xm4elZ3SpATW6RcWMJuDesWzd/3bo/Ds+aNXutyZXZc0EzRLyx3fb09KySyWT1XAhQGj/xRx+8/0xZWdkqPz+/cmNsoRe4iF9XrVp039133U75f5X28h1iL7LlZWWB77/7zosrV64Uz549+3fiaXT+ODooY/iLL7zwQHFRUTALEzLnYsvv4eEdsoICA4vNqQdlQcBUAhCgppJDOV4RCA4OLvpu2bJNCQlHhtTU1PibGxt1pc61HNl50SMqUqvV7iqVyp3dV1paGt76IKQtqS3ePRba0uLpYA/sSx/abQ9Me3lwcj3IJDhKuAg/YONQVFQU9vQTT3z5zltvdbvz7rs/J5FUTX9/xaXZNs8TPD2mjai3t08FnT6mpslsWgWXlaJd3EGzZs7YeWD//geHDB168GrjRqsHQvKYys9nZMSuX7du7rw5N8zMzc2N1ul0cnv7DrnQhqHMzMwujz/y8DfffvXlI++9+87aadOmr6dVlHPU/6arMWCxzrTc7r77778nPPH4Yy+eOX26h7nikw0HE6Ddu3dPVCiVKk4GFZWAgJEEIECNBIbb+Utg0eLFPx46eGDkmt9/X0A/5haNb2YPvys8AIWXe4iuch9/IVrYMjq9KpdEoI4eqmb/9rAQBhIyAfQgf+X775Y9QEJm7+effhofHBKSz7x15CETq8gLXVFR7vvqKy8H+vr4lpFw+YQe3tzl7LIwr3aq50YNGtAHf3//EjelslbPkQCl74WQhFSf+XPnbh08ZMi+r778fEtkZNQFhdKtjm2sUqtVisKCgtBnnnqyR8KRI8MzMjI60dhJydSWeWNv4vMSxC7UD0VaWlq/06dP937/3XdfioiIvDBo0MCDX37+eXJgUFAhhfTUCOlFinJ8SirKy31feuGFHocPHRydnJzcl+qhnzbzNh612ULfQcHAwYMPSiQSoz2xBkwZ3AIC7RIw+yHQbgu4AQSsRIB+SHVJSUnvZpzL6JKUlNifCy+BlUx3mmZ69Ox5ih6gdNCUljMPFglRFyZE/9q0ac6mP/+c1Rpf+o8XmokV9mIgVyjq/AMCigj2CkcAzo7itJYCpWTlVbcsurmCS+F3MSeoVrFv757Je/fsntT68vZPjGTrRiPat3bFlz27HcI2hmwlhQnKzMwLXS5cON+F/vlKsdEs+wAT3OzirM+MNR26UT18xIi99DvZxFnFqAgEjCBgUS+REXbgVhDghECvXr2Sb1y4YDktx5azN3xc/CLQp2/fEx4enpWWsIo9oUmMipmLiC4X5iliH+Ypbdnw1dwsLisrDbBE27ap01ry82LvoihfJMVXa7iIA72UFxNW7CXi0jFrHTf6a6E9ezsNmhat/W9j0DJnL/mwOc2p+GRG0QugYPz48VsDAwIQ/2nQKOEmSxCAALUEVdRpUwL33nvf5zOuv/53+tXWcf2wtGnHHKBxNzc3FaV9OculN8cILPQkt9pPnuXVoeVb+Bda8l4n0q7pCrzYGTHjeHorCVzd+AkTtyjp+8hTE2GWExCw2q+xE7BEF3lE4KVXXnluwsSJf9EmBrasxSPLYMq8+fN+oTGxjXuaVuMdbASs1p+BAwceDggMLOTywAcHGwu76A7FoAq6dOuaOmjw4EMOFA9tF+xh5L8JQIBiRjgkAdpwUvHWO+8+PHrMmG1suQkXf4TXpMlT/vL18yu0wZhwF0RnA+Mvb5LFgFrTjA4RETk9e/Y6yWIGneylzmoi3xrjyX4Pp0+f8UdIaGi+NdpDGyBwNQIQoJgbDksgMjIym4nQiRMnbqK0Sf9Kh+SwnbZ8x8x+GPv4+FTOnTdvBW1Asby1l7VggGIzu3/W6xSnphpU2YKFC3708/cvcsJleIP4WG/sTWtJq9EIevfuc+r662etUSqVatNqQSkQ4IYABCg3HFELTwl06dLl7Dvvvf/QTQsX/kjJy+m5aZuVX0vgYV4oSotjyHeYdw/P25bc/o2/f0C+9ZdzrbZx3BJD/u86bTCqQ4cNPzBixIi/6WAGZ/OCWn48LdwC++1jMZ933HXnlx1jYjIs3ByqB4F2CRjy8Gq3EtwAAnwmEN2x44U333r7iRdfevk52kRRREKUz+YaZBsTbvRAaVZQcnDaJWuIqraBXLl6V6KjozOfee75l6gfOoM6zM1NlM+Gm4r4UAuHS/BGzY3Hn3jy9ZCwsAtYhm9/FrDvaPt3WecOtvQ+8/rrf5sx8/o/WMo667SKVkDg6gQgQDE7nIIAJdIue+iRRz747Isvb+/Tp28CnZbUchKIPV50JCjTUQ0Lb77557Fjx+6w1zx+82+8ceUtt976TXV1tbWGgTdiwFodNrAdxsVgNp06d05/9rnnXqBMBpynZDLQ3v/cxrx79GLJDjjQUd4mU6u5VjmD+VxSiT4wMLCATnKyhD0G18leFOj4X8HQ4cP33XPf/Z8Ye/ypwQ3hRhAwkgAS0RsJDLfbL4HWHZ+b6QSWC6t/+3XBzz//vISdtkJHDNpFrkG2e5UeJo0DBw2Ov/2OO78cM3bszoCAgFJ7HRHKKVmfn5//Vm2dym3lil9upZN2LNwVl2ZygZoiJEyxyxrt0DmvnPh0jbZ11qzZa0uLSwKef+7Z92k5XmKjtFotL5GU6UIQFhqaM3rs2K1nTp/pdvzY0eGuEokpY8ZpGfpdqfnsyy+XrF61auHPP/20mA5CaMnvac2LiU/m+ezVq8/xZ5559mXKk5xkzfbRFghciwAEKOaH0xHo0rXrGbVK9Rbbjf3T8uVLNm/aNKu8otxfKpXyToiyBwhLJcXy9lHs3b6bFy36bsjQYQfZDtarnR1tTwNKR3MWFOTnP6tUKFQ//vD93fSSIG5JGm+ZyxBPn9FizDKmWrVWo5cC2Mscefa+pTnY+OYbr7+mUql8rSmuLn4vdAKFQlk7/6abfr1tyZJvQ0NCc198/oW3Dx8+xLUANWlO0GEYFaNHj9lJKy7HRo8dt+PTjz58KjUtrYe1fmcYIzqOVjBkyJADr7z2+hNx/fsfteqsQmMg0A4BCFBMEackoFAq66njR+pqa1OW3H77t2vXrJn/++pfby4tLQukhyu3596ZQJglL2W5Mj3oITZs6NB9tIlqOXk+D3t7eVeKxCKjBAPFe2ml9KFMAHITTPlXEbGruJHgmPRAvlrbJKYLa2trnx4wcEDCe++++0JWZmYMe0hzfrkIGLdrrs8Sc07UrzXiIzmMATViAf7/R0Umk2nIu7aUEtQnv/j8c++fPHlyIHlDOT+159J5wLjSR0/irmz0mLHbKYRjGbWfxDIrsPuefebpUuO8sS769oIPWueEUa5LZmcUxTmz74qvry9L3r9y4KCBh3747rt7Vv/22+LS0lJ/YtVyzKglLtY+fe/V46dO3fTyq689zWyxRDuoEwTMIQABag49lLV7Am7u7uwkkOMUP5b05FNPvbFx44ZZ7Dzx48eODa6rq3OnH3L2HXFtExRcPzAuq1dH9TfSg13df8DA+EmTJv1Fy4o7w8PDc0mQacgzaJLw60kn2PTp2+/o/r17x9JDry330aV1XfoUvPSf2zyGzbTU6UpxtFWdO3c5zXZAcz3w7u7udfSQ/oWJbPKE3vnHmjULysrKAqjPLexN5X6pEBQJhTpfH5+yq9lOIqYiODg4l15A2AYNdgZ3Wz/bmBiiFtg9zRGRkVnEqZFrTpfWR/GFRexs+3Pn0ruTrWxc215MmA2G2MqqY2PcFBEZkWlKUnISOayPB0hQXffdsqV3/7Zq1S25ubmR7AxNYi8yddza+nnJ94ONh7ZDhw6Z182Ysfa66TPWde/ePZWWuf8VYNmhQ0QWzSUVrRpIyQRm26Us/sWE5rQLnYdeERgcdM18mGGhYbk097OojxGtc6Ktzss5//N9YWMxZuy4LW3f2dbVigv0O/Mchc98tX7dujlr1vy+4Fx6ele6V8xYsT6byuvS3xFqU9O9e89TTzz1xCvDh4/Y1/obZ8mpiLpBwCQChv5ImVQ5CoGAPRKgh5eooqLc58TxE/137twx+eCBA2OKioqCdFqtnB5a7GEhpD9F7KHR6pExuJut5z7r2YOMHhR6+ugoH1+tt7dPeb+4fgkUFrBp6NChB9w9PGqYh8ngitu5sbi4OCAlOak3E9V0HKVRHlTqowsdsN5EoQuprcKKcwF6qfkkRIWFhQUh27dtm/Lrr7/ekn7mTDcaEwlj3/pp4d6ini455Yqxbf0wvnp66DeRqNJ40PGRvXr2PDntuuv+uH7W7DWXi5ZL26aY4OBTp071I2+xktVhhJBrE3N0preLfuiwYfsDAgItHp+bnZUVkZyc3JuEjcxIz/Q/LyBsGX348OH76XCAcnPmG42bS0Vlhe/mv/6avv6PdfNOnjwxgDykcnp7aRs3Jkqv2UTbGLLMDuz7Qd8Blbu7R+XwkSN2Ue7YlZQInx0HWkk2X7EiWtFQHDp0cAQTwW08WP/a9Dg98JqZF7917riEh3fIHjhoUHx737WzZ892Sk1J6WUIH/Z98fTyrOzbt99x8n62eGavdJHX3+3kieNxGzdsmLNzx46p5eXlAU1Nele9vqlFkLL41mvxYqEqrI+MlUgs1rAlf3rZPEkC9wvWJ/r3GkPsxT0gYCsCEKC2Io927YoAPRx8khJP9aVNDt2LigqD8/MLwoqLCkPKysv9a2tqPJg3pb0OiSlujh5IZUFBQQXMe0XLYhn9+sUdjYyKuhASElLgCDGd7TEw5b9XEHsSFcNJBHTLvJDZsbioKKSchE5tTa1HvVqlIOEjEpLYpDhStReFKAQFB+eHhYXldO3WLaV3794nKQ1XBjuD3pS2UcZ0Auylh17eRqalpfWksIro7Jzs6NLi4iASpa6X1NomJFu+PzROdaE0dhERkZlxcXEJ7Pz52E6dzjrD+KUkJ/eIjz8y7ML5jE452dmRhcU0z2kVgJLHt+2oamPVLKWXU/YbQjHUuTExMekUF74vtlNsemhoGE43Mn3KoqSVCbT70LSyPWgOBOyOAO1OZx4Lg75LzKtjiSVsu4PGgcFM9DPxydizJzMF1DFvEPN8GuXh5cAUVGEgAebdZmN2tdvJid3s6tqyrI+LCLDVGJrnV4xLZiEepoblAC4IgAAIgAAIgAAIgAAIgAAIgAAIgAAIgAAIgAAIgAAIgAAIgAAIgAAIgAAIgAAIgAAIgAAIgAAIgAAIgAAIgAAIgAAIgAAIgAAIgAAIgAAIgAAIgAAIgAAIgAAIgAAIgAAIgAAIgAAIgAAIgAAIgAAIgAAIgAAIgAAIgAAIgAAIgAAIgAAIgAAIgAAIgAAIgAAIgAAIgAAIgAAIgAAIgAAIgAAIgAAIgAAIgAAIgAAIgAAIgAAIgAAIgAAIgAAIgAAIgAAIgAAIgAAIgAAIgAAIgAAIgAAIgAAIgAAIgAAIgAAIgAAIgAAIgAAIgAAIgAAIgAAIgAAIgAAIgAAIgAAIgAAIgAAIgAAIgAAIgAAIgAAIgAAIgAAIgAAIgAAIgAAIgAAIgAAIgAAIgAAIgAAIgAAIgAAIgAAIgAAIgAAIgAAIgAAIgAAIgAAIgAAIgAAIgAAIgAAIgAAIgAAIgAAIgAAIgAAIgAAIgAAIgAAIgAAIgAAIgAAIgAAIgAAIgAAIgAAIgAAIgAAIgAAIgAAIgAAIgAAIgAAIgAAIgAAIgAAIgAAIgAAIgAAIgAAIgAAIgAAIgAAIgAAIgAAIgAAIgAAIgAAIgAAIgAAIgAAIgAAIgAAIgAAIgAAIgAAIgAAIgAAIgAAIgAAIgAAIgAAIgAAIgAAIgAAIgAAIgAAIgAAIgAAIgAAIgAAIgAAIgAAIgAAIgAAIgAAIgAAIgAAIgAAIgAAIgAAIgAAIgAAIgAAIgAAIgAAIgAAIgAAIgAAIgAAIgAAIgAAIgAAIgAAIgAAIgAAIgAAIgAAIgAAIgAAIgAAIgAAIgAAIgAAIgAAIgID1CPwfqLusydAvYRsAAAAASUVORK5CYII=;" parent="1" vertex="1">
          <mxGeometry x="2471" y="250.75" width="120" height="66.25" as="geometry" />
        </mxCell>
        <mxCell id="v_S0wCteuelmJFMXRHNb-2" value="IoT Edge&lt;br&gt;Virtual Device" style="aspect=fixed;html=1;points=[];align=center;image;fontSize=12;image=img/lib/azure2/iot/IoT_Edge.svg;" vertex="1" parent="1">
          <mxGeometry x="1933" y="468" width="55" height="55" as="geometry" />
        </mxCell>
        <mxCell id="v_S0wCteuelmJFMXRHNb-3" value="Device&lt;br&gt;Provisioning&amp;nbsp;" style="aspect=fixed;html=1;points=[];align=center;image;fontSize=12;image=img/lib/azure2/iot/Device_Provisioning_Services.svg;" vertex="1" parent="1">
          <mxGeometry x="2040" y="468" width="54.3" height="56" as="geometry" />
        </mxCell>
        <mxCell id="v_S0wCteuelmJFMXRHNb-15" value="" style="edgeStyle=orthogonalEdgeStyle;rounded=0;orthogonalLoop=1;jettySize=auto;html=1;endArrow=none;endFill=0;" edge="1" parent="1" source="v_S0wCteuelmJFMXRHNb-11" target="v_S0wCteuelmJFMXRHNb-14">
          <mxGeometry relative="1" as="geometry" />
        </mxCell>
        <mxCell id="v_S0wCteuelmJFMXRHNb-11" value="InfluxDB" style="shape=image;verticalLabelPosition=bottom;labelBackgroundColor=default;verticalAlign=top;aspect=fixed;imageAspect=0;image=https://assets.zabbix.com/img/brands/influxdb.svg;" vertex="1" parent="1">
          <mxGeometry x="2151" y="326" width="74.25" height="74.25" as="geometry" />
        </mxCell>
        <mxCell id="v_S0wCteuelmJFMXRHNb-14" value="Grafana" style="shape=image;verticalLabelPosition=bottom;labelBackgroundColor=default;verticalAlign=top;aspect=fixed;imageAspect=0;image=https://cdn.iconscout.com/icon/free/png-256/grafana-3629403-3032396.png;" vertex="1" parent="1">
          <mxGeometry x="2313" y="321" width="84" height="84" as="geometry" />
        </mxCell>
        <mxCell id="v_S0wCteuelmJFMXRHNb-29" value="" style="edgeStyle=orthogonalEdgeStyle;rounded=0;orthogonalLoop=1;jettySize=auto;html=1;endArrow=none;endFill=0;" edge="1" parent="1" source="v_S0wCteuelmJFMXRHNb-22" target="v_S0wCteuelmJFMXRHNb-28">
          <mxGeometry relative="1" as="geometry" />
        </mxCell>
        <mxCell id="v_S0wCteuelmJFMXRHNb-31" value="" style="rounded=0;orthogonalLoop=1;jettySize=auto;html=1;endArrow=none;endFill=0;entryX=0.16;entryY=0.55;entryDx=0;entryDy=0;entryPerimeter=0;" edge="1" parent="1" source="v_S0wCteuelmJFMXRHNb-22" target="OL39ELZ7I26vXckXmjW0-7">
          <mxGeometry relative="1" as="geometry">
            <mxPoint x="1740" y="443.5" as="targetPoint" />
          </mxGeometry>
        </mxCell>
        <mxCell id="v_S0wCteuelmJFMXRHNb-22" value="Banana Pi" style="shape=image;verticalLabelPosition=bottom;labelBackgroundColor=default;verticalAlign=top;aspect=fixed;imageAspect=0;image=data:image/png,iVBORw0KGgoAAAANSUhEUgAAAMgAAACGCAYAAACYCsWCAAAAAXNSR0IArs4c6QAAIABJREFUeF7tXXdYFFfXn5ndma3A0psoAkI0iTGisUQTfdU0S2wgKGDvXVATjXHfL4mJqWpsoAYQC4ICliTWV2OJsUWjEVEREFBY2vZdts73DMmuyxbYvgPMPg9/sHPvuef8zv3tvXPvueeCAPEhECAQMIkASGBDIEAgYBoBgiBE7yAQaAEBgiBE9yAQIAhC9AECAesQIEYQ63AjanUQBAiCdBBHE2ZahwBBEOtwI2p1EAQIgnQQRxNmWocAQRDrcCNqdRAECIJ0EEcTZlqHAEEQ63AjanUQBAiCdBBHE2ZahwBBEOtwI2p1EAQIgnQQRxNmWocAQRDrcCNqdRAECIJ0EEcTZlqHAEEQ63AjanUQBAiCdBBHE2ZahwBBEOtwI2p1EAQIgnQQRxNmWocAQRDrcCNqdRAECIJ0EEcTZlqHAEEQ63AjanUQBAiC4MjRqTdvwv89UQVHM5l0GSp3K60VU8tqxTQ/Jh1hUEmwSqFS1wnkMgkAKroH0RqjgpmikrJ6kRvNVzZk/RA5GwTVODKnXahCEMQJbkRRFIxNO+teUaUK5wgkAwQS+UChVNlTqUZDQBCgq9QobC81QABAQRCUUhFSFQ0mP2DSyed93eHLUV6+RfsW9xOCIIjaq62OIIcgiJ29PPyrMx7ltdKBdRLJBJFUOVyhUndCUYBk52asFgdBoIyGQPeZCGVfhK/Hkcvs4RUEaUzDSRDE6q4GADHs+8ht8cMB9QL5fGGj8l2lSs2yQZzLqpJJEM/bjbqNs3XiJ7pKxOTkkM5fQDdKZMoYtRoQ+rOo657+MCHfZYq6oGGCIBaAPif1Jnz2YeWIGoF0pVimHISiKNmC6k1FQRBQQyAoIEHgUwZCvstiUu/ypIr7PQLdyoVqSe07YeHib0saZGxgiHr9+qbpksGUCJuyYbJic3OhkrNhUHQ0QD/x12P3ED+P4CpuY2SdWN4HBNS9lCo0SqFUe6tRtNURrGdnr1fvbhj1t8aeYRvOev/vwfMaFAUgXRspMKlIlj6lu6V2t9XyBEFa8Vz0+mOdSznSNXyJPEGlRhnmOpoEgVI6Qv6bipCOMinwGZoHq7CQPVRkbn17l+vH/sWdJ1FEN4gbx/HFig//nfq96Pz7kpr1BfLUfTylSu1hTA8fd9pnddtjPrW3jniURxDEiFd6rjnxSlmt4Adho/I/+r+gxpyIkYFGgS960pCMyAD3M2c/HtbQFub1Md//TrtRUf0OX6KcxU2NHa2xDSPTteI6vqkOS4JAmWpvIhWPHdreOhEE+RfR19f+3KW4RrBDJFW8hwJAi7iQSZCQSYMPBXoxNk9CRhay2e1refX9r8+F/3r3WXGLnU1vxLF3x8SLvA5PEJ852b0bpIqrahRFTDkFe29gUMiXAzypn77eV3k5NzZWhRcHOkKPmJz7SO6xWzJTsmES1KDITPB2RNt4k9khCRK6LH8sRyDdKf1pcgBl+v53ZQrVSX3HQCAoZ9Hh/VEhjHVXPxn9DG+Oc7Q+zJkHr4pkiv7G2gnzcxte8v24c5pnPdedGBzsC/3165IPBI7Wy9nyOwxBsJUf/8WHV9bypRuwfQmYBEkVmQl0XYJgI4U7A8l+PcAt+QJ7ZLWznYGn9jC8aDMPPGiUq6J09fLzoK6v2Rb7f7rfUabtL5EpVV293ClbGrZPWoonO2zVpd0TpIkYC3PW1whk2KqL1l5dgoAg+G2YHyOp8KsPb9sKaHur33ftqZD7nIYx3kxqw7DXWPkZ04c26trYm30y4s/imsea70gQKHkjkhXZXkbddkuQf4hxeH2tQPqpsZduDUHaW4d2tj3eC3I31wukS/TbDfCkpVT/GPOds/Wxd3vtkiBBSw4vrOJKtrS0RGuMIO9v+YVSVCZ9VyoTf0iDlZ0VKiqPRKJeCGYxcn9nv1tjb/DbizwsvOZiEadQrlQH6drEpMCXRXviB7dlO9sVQSJXFgx+whGeUalRSmtO0RAEG2kiVx4dVlYnPAygCg81CgEkUA30D3kEfDr0CDAg5DFQI3YHPv9tovxkyXuLn22JTWtNdkd97r8o5yMOr/FLXfsRMlS9JnRKcFtdCm8XBHl/yy/u//uTewd7UdTvnAhMqpQrVJ1a67TPVs0DWFSJtphSDQF/VXcBPj0XC/QMeApsGHEIAFAAmHl0oYAjmdDlAnsorzWZHfE5tp90p7yhWDcMhwSBwnXTO3mxhw5VtjVM2jxBvObnftMglKboA08mQdweId4Donp2LjW2pg+CAApC4G21Cn0de3kf9dItYG6fs8CQroUApBf+pEZBIOVUAhD/6hWgb3AJkH2vP7D99qcRtz7/4Elbc3hL+r625sTQ1uxhUEmi3z99/0ZL5djnz5O/yKx8rlCivtqXdxLIX9c1wautjSRtliDY6sqfFTWFKjXK1HUWCIKqzt6M2Kebxudh35va9NJMsbCI3EZ4lzA7ZhOSfvttIOvOYGBQlyJg1aATABNptmADPBd6NpFjxcBfgbSbw4DfuZ+45S50XXxVa53Z0udjNl52+/l+abVKjdJN1WXRkVu8tLg+5simzNj/UCZXRWrKUmDSU1n6lFBz6uKlTJskiO/CQxtq+bKP9UH0dqPsrNseu0A3DqoFgkgUmQlNwYfYe8ioDesuHIr5/C0ABYGkvAXAuiFHgPzCvsDqwcebNSNVwkD23YHA9N6/AW/t2VBza+Maf7w40x56DGGfJ//2pFJqKlKZxUBu8lLj+prbFmX6/icyhSpMU96NRjks3DUpxtz6ri7XpgiCrTKd+7OhVK5UB+oCB5OhmjdDg1++wB5apw+oOQTR1On18Y6Nv01duIoMqYHjD3sDr/pXAB+djgO2j/4J8KKJtaIr+N4AQlYANLICGJBx8L2y78aecrUj7dn+Sx/lRxdVCm8ak8liIjd4O+PeMLs9FAXJ0/ZzdSODQ32Z75f9MN4gesFsmU4s2GYIEvnRsb6PK3nX9Pc0Ali01dVbY742hZklBMFkvJS858vrc2Z/hK1k3XweCoR51gJT8xYAnw07BPQKKNc2s/ZsLPDF8Bzg1W2ba0s2L/Vzos+c0hSUmCUzFp9mMUEAABiSfp564VwFtgLS1N+wY8ETx1DhthDT1iYI4rswd3UtX/qVbs8gk0DhoK6dwoyNGrrlLCUIVrf7ih8v3py3uGn9Pq+wLzC+xw0gcGMqcHHWeqCb9z8RKHIVCeA1MoDD9/sBXZDZ5Nh2FsDInHXwiqhRMVCfjSwGfJ2XGt/PUpZGrMx7u7hKdOHFVAv+WbgrfpSlcpxdHvcEYc3NPs4Ty5sB6UZHjgvT4saYA5Y1BGGzUaiIPl+xZ+zOpgNFW/54Fxgd9SfQc+u3AHftdACbgmGfby6PAsb1uAEs/S095MLqDyrN0aetlPFacOjbBoEs2V4EweTQZx28LGlUvKmROSQixBPvy+W4Jgh9xoFCiVzZ7HhnJ296YuXmifvM7WjWEAST3XlpXtLphNmZIR71QL2UCbAoEqDb5u2yLh7PKOdnfNbU/LdXRgIzel8A+uxK78nZGnvPXJ3aQrluyflLH3OEm/R19WQg17ipcUajfFuzS98XdCp8RbI7flBr9Vz5HJcEwVaV4On7K5RKdbAGHCzS9pVwr2732KNKLAHMWoI0kWTR9+oHS1Y0YXSsqDfwuCFYzj4XC5Ulzyd700VN06+eAeXAtOM/hd7+YuRTS/TCe9nOS4/MLa8X77QnQTBZrLnZ6TyxfJpGLntmCIznDUTcEaSJHNP2cZSqF5tMEARKR77J8jk+d/SLrW4ze5gtBHGfffD4k2VTR9FhObD5j/eA/p2KgYT8r5ZG+1/cnB27BThaFA0U1wcA6tAUXDvZTKiaFWuBIH9wU+MGWCMTqzMt/Tw141yFVFM/wIu+qHrLxG3WynN0PdwRBJm6r0KuUmtDQ2Ay1DD2A8TP2hUPWwgSufrYoJQ+X1+a8tplYM+tIUCYVw2QyWeT80+IlfxPpgPbr48AvroUw61PnePlaEc5W37I8rx5FbWiHYYjCHyVmxpv8PJuiX6U6fvLZApVF6wOTILqFJkJ2h13S+Q4oyyuCEKbeeC2VKbspTEcJkMcefqUQFsSINhCkHe+OcXwUB0VZYzfDmTcfgs4Xfy64ujazQh1xv6imlWJUe9krgGeN/YZU/7D2Oa7ic7wnIPbCF2eN6/MKEEoV7mpk2wiSMiyw/EVdZID2mlWRCIJryEouCGIx5zsg3yJPE6HHA3y9Ck+tpADk2ULQXJyUFJOyULlT+N2AA9qg4BxuVtmPd88YU/n5fmxYyMOHdpxfVS7PZsduiJ/flmNcLvBCMJEfufujNOuRFnDUyybSu6fxdrpcq9Obl3vfDWuzBpZjq6DC4J0Wno4obJekqUxFkuPOWEUhWHttEoXNFsIgsmZ8f009C6nC1Ai6LGpYcek5RrSnTj117VeIV7DrrLfa3C0k1whP2z5kQUltWKDdwNPOxCkyZ6EvdhaeVP/C/GhL6jYNNFgOucKu/XbdDlBBm/4xfdSYZ3uYST0zVfDPK6sHiS0B0C2EuT1tT/3gRmU0utrhtfbQ5+2IqPrsryFpXWirYbvIMgVbmqczUuzUFIWX61G3TH5nnTkEDctTjt7wBNGLicIKSlLqBuR+1Inrz5FX426ZS+QWiUImw0BxWHG0vigWII0hAzVURH4FpMKZfTvHHQqd8VA7QqMNToGLM5NruZKv22pLoNKLhLvntwdiMkhAZRGgzMUWKgGNspiutEQ8g0GhZwxrJfXaf3z4tbop6nTdUXewtIaxxFEd48LgUm35OlTzIoQtsUma+q6lCCe87J/5IrkizSK+7hRv6nbEbvKGkNM1bGBIEZFkiBQFORFX1yxaUKGtXr2WFkwuLBKcNFU/dYIYqoemQQJgjxoi8q3TNBOV63Vsevy/EWltcIf9et7MeDLDam2H6MlJe29plIDTUGPCJn0SJ4xpVn2FGv1tnc9lxEES458rvC5NvoWO5opz0hoFqVrD2PNIQhSGsEHQKApfkSpRikoiiIo2nJ2RSxvVlSIZ/QDnYTPlujrvzD3Ew5f+s+WvN6HSSUXif4dQRC6nGexbhAoezmY1evel6OLLNFJt2x4cv7iJxzhFkOCIJcaUuPeslauph556r5bSpW6N/Y/DEEPFXsTXrJVpiPqu4wg1On7ixsVqnCNUUOiQzwvLLf/MdZWCWICVSyT+7mi8mEVDdJdcpXpI7uBnrSEqh9j9lvlHJ0XVd36TCr5gWj35B6mZGqyzFc2iHbpJ0rQrRPszYx9tnl8rjW6hafkLXlSLdrsKILQZx4olsiUTf5nUuGrot227a1YY6M5dVxCkJc/Luhxv0JwX6OgtzttS/32GIckHLOWILrgvbS6YGDRM8Fl3bxazZ4He/cs2jjS4lgsyoz9f8rkKuzIb7MPkwo/EO2ON0kQ3cLdko++9ZjDx6Jkjfry1RDP7taMJOEr8pY8qTEkiCcDuchNjXvbnM7VUhlSUpZYc3KRQYN/Eu+Kn2mrTEfUdwlBkGn7nml++bAYK/XeRLKt+x2mwLEHQTDZg784GXjpQc1zY+1g0y11VmKrmVT06/rOz/2iVihdY0AQGrlQtGvyy+Y6HDt+fOMp58VhFZ2K1mZibyFY0S4EARL2au89CfKkT37+48SD5trrzHJOJ0i/L876X3vwXJvW09+DtpyzLcYgatReINiLIJg+wYtz5z7jSg0C+LBnXXyYEzTn4M3VvfPS3KTyemmmfnk3GrlQaAFBsPr+iw4v5fAkRnEM83MfWfL92F/M1QsrF5GSv6y4WviDfh1PJvwbd2f8EEtk6ZfF8mid/btKmxVmYIS/P17zjjmdIMzZB0+JpIp3/gUNRbMSSY4aPbA27EkQTB6YmKUwdl4bIUGV8syEEEs6DjJt/3i5UnXEHgT5R7e9KmPJ8ihkUqksY4r2XLg5OkYkFywv5gi+dwRBgpYcWfy8QaxdAECzEiFH9gFz7DVVxukE0d1B9WAiB/g746bYYkBrde1NEP1w7WbtW3pnRkLWWABADe78c6PB94W74l9pzTb95/rhOjrPUWBfUrOr1FqTbZIgDOQCNzWu1fRALcnXnWIjZFKFPGNK59b0cdVzpxKkx7pjLxeW8rT34PXrHhRwbe1wjiONtzdBolYd7fPwOd9oXqj33/Ch/rrkA5P3ahjYaWeCRK08+ubDKj62mGDwiR7cA7k1t4/CXKwjU/JWPKoWGeTW9WQg57mpcf8xV45+OX1/hPjQZ1ZsmviTtfIcXc+pBGHNzc7kieVJTdMBEFSiWYl2ux/cFFD2JsibGy+7XblXYvQejPi3gwIOzraA8FMyxwEg2JS/S/dj7QgyhH2edaG4gmsMi6T+UT57F/UzO1wmMjk/+RFHaLDjz2Ig53k2EMRnfs53dcLGFRodiQNTOt4iT83iKVVo08WQTCp8TrQ7frijfwHsTRAsayB7T4XRX+L+Eb5d/2C/b3ZUKilp3ziVWm1AEA86/Dc/Lf5VS7Fh59xH2CZuhhrwUnCnq58MM/sioG4rC1IeVwm+0deBxaD8j5c6aZilumnK674n0SnkO5I9kw2Wua2V7Yh6Th1BdJf2OnkzplRunqA9E+AI4zCZ9iYIgGWWS8j6J2uD3md8dGhQ3vK3qsy1xdRLurUEAUzHlQExb4T65S55q9Zc3RxBkICFuaurdbLTRIf64D59q9MIErH4F0oxt06by3PEqwHBZ1a/Y3RfwVwnmlOuBYKIFZkJzdKWmiOvpV/p0IgQWhm7+QUzLclEph6YIFcpD+uX8aAh9/i74nqao49uGXZ6KZV97pLRYMoeEVRKITtWbq7Mbil5Kx9XiwzyjbHoyDleWpzFI39MTg4p91gjNvI29TmEDD2TZyS0mlTcXH0dVc5pBBmx8XTQmXvV2iF+zuAeSJoFL43WAmBvgkQmH/d5xOEa/yW2cBWLNn3fRKlCbRAKYi1Buq85EvigXGzsR8fiVaxuK/NXPa4SbjSYYtGRs7y0uBGW+sNt9sETQqlipKZeWxg9MF2dRpDABdndqwTyQg1A/+5/GJ2qWAp+S+XtTZAuy4+Me1orNnhvgMlgrSIj0aIMi8xZByeKGhWGBKEj9/hplo8g+kdZNbggZKhKnpHQ7HKb1jA2RRAPOnKWbyFBXllztOff5fy/NG3SKeTrkj2TLU4+15rOjnjuNIK8knK059/VL0ACLPy1tdZ4exOEMfPANbFMaZCb1porx5gzs2NEMnmOkSnWXf6uuNcstZk+88AdiUxpUC+ARVtYvTXG4PhsS/IjUgpWF1cLmmWzxMp70OAz/F3xmo3eVlXEkvD998k+OYqiJE3hmDHRlNzYl82e7rXaiAMLOI0g7gtyIgSCRu1lj+ysRBIbBNvUCPLvPNroJTDsiBCYzbbsghiP2Qdi+VLlIQOC0OG7/LR4iwjS0upazBgq2dLjyxEr8z4qrhI1uy0K09PSfRDajAN/SeVK7ftUsDdz6rPN4/c6sE/bVbTTCJK09Zr33j8eas9/DPCl0q/+EGvT6TxzkLDnCOI+J/uYQCIfrd+uFwNJb0iNm2GOPrplPOYenMQXK7INCYLc5adZNoLohfBoRXozkR31O+MWWKpbREr+x8XVwg1G3kFu8NLMy+7uNS97U4NIro3SplPINyV7Jpt9dYKlOjuivNMIov/rGxni2f2RDQd6zAbDxLFVmARZtIoVsCh3QTVPapDEAIJAuSozgWpNLJHX3IOTGowT5C9+Wpw2/VFrtgYuPrKsiis2CCyEILBRvTeR1lp9Y88jUo5+XFzNNyAIQoKq5Jmtv88YJOIAQfmn4Qk0vKb3MYWR0wjSpEDCXuzsd1NMkL8HbR1nW8zn1jjPkjpjfzjPKrhluLtsLkEwYp8+h+byxbJxxtp9vYeP3+01H5i9v6Arw2dedlydSG4Q5u1BR8wiCKbbqTOqAoFUYSxLOjogws/H2qwrEckFa4o5gi/0bcaOJ6BZSdr3CWOYhC7Pe7us9kUmd6zM4B4+fpesxMkSf9u7rFMJQp2x/1GjXNUNM4ICkypk6Y4PUgtafHjJc67E4GScKYJgqU8HrT7GrFapB3F40nUimdJomk0sVKZPuFfIDfZIbei+pc7xWXAovk4gM9gs9aAjd/hpcQY7zJhu/f/7q1utSDqYw5WtE8uURleCIBBUvNbdO9ha4mJ2hK/IW/ukRmT0B6xXqGfknc9Ha98nde3ullLQ73G14A/d76ICPQY9/ObDK5big4fyTiWI/jSF7YSMelBilkKNomR9sMkkSKrMTKC3tPtsykFuVPhkcqe4kbZOF/wXHIrntEQQE9PDljqOGw0+IUiLG2PNlE9Xbnhy/idPOEKjZ+ZhElSvyEzw0dejS0ref55Wi87pfh/ixZxRsWV8Oh46uzU6OJUg+hn1HL2iwZx18JyoUWE08tRSgmBTC3cakjswyH3Or+wPjAYrWuoA/0U5kzm8RoPz7NoRxEyCYBeXutPgQ6+Ed5pnr3xiLREEs9ONSr4o3D1Ze/RW/50DKxPoyVhe9eMEhx2GsxRva8o7lSCYgljmdoVS3bShRoJAiWpvYtNFmvb++MzPyeFJ5CbPTsMkUCr9aUooNoJQSiM4KNj0boT9qVVqVM6kwhUUGLrJoiMnQv1ov51e+e6LSwrtpGzg4twpVVypwV0nLDpym5cW1xvLi0Why6sNdKOQyykI+QaLSfk51Idy0RG6Ra0+uqqUIzQ4DqxrOhUmVe0eEffKggs5G+oEsmbpmgJZ9GVVWycaTG3tBJ3TxDidIF2T80aUckSnNRZ2DXR7t/Sbcdr/nWY5DhoKXHQ4oYr3IuWqRiUtQXCgY2sq0Gce+EOi9y4U7EWf9mzLRIOjxK3JwuNzpxMEAwFKympUq9GmJAfYC6U6KxHBIziO1qnTosMJlW2UIAPYJ72ul9SWq9RosxlAVIjHoIdfts0XcmP+dglBuq7Mf6e0Sqi9OpnFQDJ4qXHTHd0h8SY/eMmRxGcNYoNdZRYd+ZOXFheNN301+hiL+YJAUDkg3L/LFbbjI7SdiYtLCIIZqHuJCvZ/ZJBbv0dfj7vuTONd3RZ2D2J5vchgKoJXgmD7Lj+fUl6TyJTNyIuQofIPP0DCLA1ncTX+5rTvMoLEbDvPzL1aoZvBHX3/DR/Wr0vss0JkjvGuLtN5yeGp5Q0Sgxy/eCRIl5QjI8urxcf176n3ZFK2c3dOWuhqLB3VvssIghnUedmRieV1Ym24Nxa2MSGst1suu21EetrqlNDleVPLakXGCHKLlxaHi2zn2C1bFx/U3miUq5vdNgyCgKp7sEffwq8+vG0rDniu71KCYMB4zsney5XIEzUgkSCwcXxYb4+OQJLQZfnTyuqEBptoLDricoJgu/a+Cw5/XSeUpuh3YDqFfHlVSPzbtm6U4pkYGt1cThBMEcasA9fEjS/OWGBhHP3Dff2tjSNqC8BjOoYtz5teUisySHnDYiA3ealxLot6DVl6ZFJlg3g/igLNYq6wDcnwAMaw4m/G/9ZWMLZVT1wQBDOCOuPAvUa5slmytDB/5uCS78YbzfNkq+F4qB+2Im9GSY1oj74uriJIeEref8pqxMc1SaV19fKgIwd4qZMSbA1hwQPuluiAG4JgSjNnHbgialQ2u0HVk0HZxk2dpL1kxxLj8F7WJEHoyE1emvNGkNDkgncraoWHdW/60mBHgUllA7oE9b3AHqo9y4N3XO2pH64IghnmNe9QWoNINlvXSDIJ4kdHBkQ5OgujPYE1R1bE8vyZxbXC3QYjCB0x+1CSOe2YKhO09MjMaq5km2bTVrccCQLFYX5uwx5/O/aaLW209bq4IwgGaOiy/LFldUKDnLUsBryPuzMuqb0M8xHJBbOKOYJdziTI6NTj9Eu3JZt5Ihl2H4eB/7G7Dzt7MyaV/TD+aFvv3PbQH5cEwQwbs/Gy268Pyoo1gY0aY7ELLP086cs4P040uB7MHoA4U4ZJgjCRG7yd5h1rNVffyJUFg8vrxOm6t3rpjRjSEC/m5LJN4wrMldkRyuGWIBrw/RflrOXwGg0O7mDr8H6ejOXVm8dvbasjSmRK3uxH1aI0gxGEAV/npcbbnBZnwOfHgwufSjYJpLIJ+ht8mjaxdEXh/m5jizaO/b0jdHhLbcQ9QTCDsGnB2WvCq7rZMXQMRVlMSvqIyJBFtl7RbCl4tpbvlpw/5zFHmGpAEBp8nbfLOoJEf3Ey8Ekl7zOBSJGkRlGTycHpFPhy9zDP2Ftr3zM7Vaqt9rbF+m2CIBpge390NOJetfCK/rRL8xxLZxnizZhd/O3Yk21hVOmWUjD3cbXA4MYqTzpyjZsW19+cDoVt6EV9fLzP83rJZ+JGxXDd/FP69bHzN35ulHWD3gY2t8e4KXPwsrRMmyKIxjjsEtDHVaIzLd3wSkXIfwd4UFf2HaA8g9fOYJIgDOQaN9U0Qfqxf+lUwhHP50kbZyuUqG9LTgdBAHWnUwpeCfRc1N4ibS3t7NaUb5ME0Rg6kH3K76/K+kPiRmWLd+aRSRCXRYczO/tTt91aP+YJXkaXbslH5z3m8HfoO85ThyAx7PvIPVlJNKdBMl3UqBivUKm9W3M0tpDBoJLPhfm5L79r5T3urbXRUZ63aYJonISlt0zj5k2v4Um/U6rUTfePtPQhkyARhUI+78dEsroEeZ4/nzyk3hWkiVqZP/9hldAgJShMggQoAIhUanWAsTsHjdmGLc96UOGcED/6+rufjyltDQPiuXkItAuC6JqKRZ/eKeWtaBArks0hi6YuduAHgaFqBgLfoVFJl0gAeFOpQh/F943gMkt6StevB1BrSYQRuKzLBeRCoYQV5AaFXFn33k1MVuSqggWPngsMktGZ57qmKwSq/VnUtcNe8z6QMd38axfMlU+Uc2J2d1eAPSf1Jnz6QcXIWqH0I4lc1RdFUYsustTXGZvPY0kdAABUkyFQDoI+XCgHAAACTklEQVQAlqcXyy+Mfd+U9AEL8FOo1BQQbNqEw/43+BHKGZNIjo0FVZYSBDsOwEDI/wvwoH85xW3M5Y4QTeuKfqPbZrsbQVoCFEs7dKuyZmitUDqnUa56W6FSs1zhAC1BVhcsfPRMsNWYDliaIRIEVXvQ4WPebkj6kPCQ2864T8UVeOC5zQ5FEGOOmJN6k3698vnLtXzFcIFUPlyuVL+sVKm9VGrTewi2OlRDkJdWHV30qEqwCSZD9VQK6ZYHHTnpQ0fOhJMlT3ItuA3KVn2I+qYR6PAEaalz5OSgpMXXT1P7doK8LxXW+4T7MoIr+FI/pRzwdaORPVQA6g6oULISRclkMqQggQB254WUL5HVk2C4oTOLXlvaIK7sF+bRUFKuql851U86t4/5VzETHdf1CBAEcb0PCA1wjABBEBw7h1DN9QgQBHG9DwgNcIwAQRAcO4dQzfUIEARxvQ8IDXCMAEEQHDuHUM31CBAEcb0PCA1wjABBEBw7h1DN9QgQBHG9DwgNcIwAQRAcO4dQzfUIEARxvQ8IDXCMAEEQHDuHUM31CBAEcb0PCA1wjABBEBw7h1DN9QgQBHG9DwgNcIwAQRAcO4dQzfUIEARxvQ8IDXCMAEEQHDuHUM31CBAEcb0PCA1wjABBEBw7h1DN9QgQBHG9DwgNcIwAQRAcO4dQzfUIEARxvQ8IDXCMAEEQHDuHUM31CBAEcb0PCA1wjABBEBw7h1DN9QgQBHG9DwgNcIwAQRAcO4dQzfUIEARxvQ8IDXCMAEEQHDuHUM31CPw/CfsFWUhbTc4AAAAASUVORK5CYII=;" vertex="1" parent="1">
          <mxGeometry x="1520" y="400" width="129.85" height="87" as="geometry" />
        </mxCell>
        <mxCell id="v_S0wCteuelmJFMXRHNb-25" value="InfluxDB" style="shape=image;verticalLabelPosition=bottom;labelBackgroundColor=default;verticalAlign=top;aspect=fixed;imageAspect=0;image=https://assets.zabbix.com/img/brands/influxdb.svg;" vertex="1" parent="1">
          <mxGeometry x="2151" y="326" width="74.25" height="74.25" as="geometry" />
        </mxCell>
        <mxCell id="v_S0wCteuelmJFMXRHNb-27" value="" style="edgeStyle=orthogonalEdgeStyle;rounded=0;orthogonalLoop=1;jettySize=auto;html=1;endArrow=none;endFill=0;startArrow=none;" edge="1" parent="1" source="v_S0wCteuelmJFMXRHNb-28">
          <mxGeometry relative="1" as="geometry">
            <mxPoint x="1584.9" y="340" as="targetPoint" />
          </mxGeometry>
        </mxCell>
        <mxCell id="v_S0wCteuelmJFMXRHNb-26" value="InfluxDB Edge" style="shape=image;verticalLabelPosition=bottom;labelBackgroundColor=default;verticalAlign=top;aspect=fixed;imageAspect=0;image=https://assets.zabbix.com/img/brands/influxdb.svg;" vertex="1" parent="1">
          <mxGeometry x="1547.81" y="190" width="74.25" height="74.25" as="geometry" />
        </mxCell>
        <mxCell id="v_S0wCteuelmJFMXRHNb-30" value="" style="edgeStyle=orthogonalEdgeStyle;rounded=0;orthogonalLoop=1;jettySize=auto;html=1;endArrow=none;endFill=0;" edge="1" parent="1" source="v_S0wCteuelmJFMXRHNb-28" target="v_S0wCteuelmJFMXRHNb-26">
          <mxGeometry relative="1" as="geometry" />
        </mxCell>
        <mxCell id="v_S0wCteuelmJFMXRHNb-35" value="" style="edgeStyle=orthogonalEdgeStyle;rounded=0;orthogonalLoop=1;jettySize=auto;html=1;endArrow=none;endFill=0;" edge="1" parent="1" source="v_S0wCteuelmJFMXRHNb-34" target="v_S0wCteuelmJFMXRHNb-28">
          <mxGeometry relative="1" as="geometry">
            <Array as="points">
              <mxPoint x="1479" y="340" />
              <mxPoint x="1585" y="340" />
            </Array>
          </mxGeometry>
        </mxCell>
        <mxCell id="v_S0wCteuelmJFMXRHNb-34" value="Telegraf" style="shape=image;verticalLabelPosition=bottom;labelBackgroundColor=default;verticalAlign=top;aspect=fixed;imageAspect=0;image=https://projects.task.gda.pl/uploads/-/system/project/avatar/318/telegraf_role_logo.png;" vertex="1" parent="1">
          <mxGeometry x="1438" y="190" width="82" height="82" as="geometry" />
        </mxCell>
        <mxCell id="v_S0wCteuelmJFMXRHNb-28" value="IoT Edge" style="aspect=fixed;html=1;points=[];align=center;image;fontSize=12;image=img/lib/azure2/iot/IoT_Edge.svg;" vertex="1" parent="1">
          <mxGeometry x="1557.43" y="310" width="55" height="55" as="geometry" />
        </mxCell>
        <mxCell id="v_S0wCteuelmJFMXRHNb-36" value="" style="edgeStyle=orthogonalEdgeStyle;rounded=0;orthogonalLoop=1;jettySize=auto;html=1;endArrow=none;endFill=0;" edge="1" parent="1" source="v_S0wCteuelmJFMXRHNb-26" target="v_S0wCteuelmJFMXRHNb-28">
          <mxGeometry relative="1" as="geometry">
            <mxPoint x="1585" y="264.25" as="sourcePoint" />
            <mxPoint x="1584.9" y="340" as="targetPoint" />
          </mxGeometry>
        </mxCell>
        <mxCell id="v_S0wCteuelmJFMXRHNb-43" style="edgeStyle=none;rounded=0;orthogonalLoop=1;jettySize=auto;html=1;exitX=1;exitY=0;exitDx=0;exitDy=0;entryX=0;entryY=0.75;entryDx=0;entryDy=0;startArrow=none;startFill=0;endArrow=none;endFill=0;dashed=1;strokeWidth=2;" edge="1" parent="1" source="v_S0wCteuelmJFMXRHNb-40" target="v_S0wCteuelmJFMXRHNb-22">
          <mxGeometry relative="1" as="geometry" />
        </mxCell>
        <mxCell id="v_S0wCteuelmJFMXRHNb-40" value="" style="shape=image;verticalLabelPosition=bottom;labelBackgroundColor=default;verticalAlign=top;aspect=fixed;imageAspect=0;image=https://cdn2.iconfinder.com/data/icons/iot-outline/128/ic_data_sensor-512.png;" vertex="1" parent="1">
          <mxGeometry x="1315.5" y="533.25" width="85.5" height="85.5" as="geometry" />
        </mxCell>
        <mxCell id="v_S0wCteuelmJFMXRHNb-44" style="edgeStyle=none;rounded=0;orthogonalLoop=1;jettySize=auto;html=1;exitX=1;exitY=0.5;exitDx=0;exitDy=0;entryX=0;entryY=0.5;entryDx=0;entryDy=0;startArrow=none;startFill=0;endArrow=none;endFill=0;dashed=1;strokeWidth=2;" edge="1" parent="1" source="v_S0wCteuelmJFMXRHNb-41" target="v_S0wCteuelmJFMXRHNb-22">
          <mxGeometry relative="1" as="geometry" />
        </mxCell>
        <mxCell id="v_S0wCteuelmJFMXRHNb-41" value="" style="shape=image;verticalLabelPosition=bottom;labelBackgroundColor=default;verticalAlign=top;aspect=fixed;imageAspect=0;image=https://cdn2.iconfinder.com/data/icons/iot-outline/128/ic_data_sensor-512.png;" vertex="1" parent="1">
          <mxGeometry x="1230" y="398" width="85.5" height="85.5" as="geometry" />
        </mxCell>
        <mxCell id="v_S0wCteuelmJFMXRHNb-45" style="edgeStyle=none;rounded=0;orthogonalLoop=1;jettySize=auto;html=1;exitX=1;exitY=1;exitDx=0;exitDy=0;startArrow=none;startFill=0;endArrow=none;endFill=0;dashed=1;strokeWidth=2;" edge="1" parent="1" source="v_S0wCteuelmJFMXRHNb-42" target="v_S0wCteuelmJFMXRHNb-22">
          <mxGeometry relative="1" as="geometry" />
        </mxCell>
        <mxCell id="v_S0wCteuelmJFMXRHNb-42" value="" style="shape=image;verticalLabelPosition=bottom;labelBackgroundColor=default;verticalAlign=top;aspect=fixed;imageAspect=0;image=https://cdn2.iconfinder.com/data/icons/iot-outline/128/ic_data_sensor-512.png;" vertex="1" parent="1">
          <mxGeometry x="1290" y="264.25" width="85.5" height="85.5" as="geometry" />
        </mxCell>
      </root>
    </mxGraphModel>
  </diagram>
</mxfile>
